<svg width="44" height="44" viewBox="0 0 44 44" xmlns="http://www.w3.org/2000/svg" fill="none"><path d="M42.494 11.907l-11.21-11.648c-.16-.166-.38-.259-.61-.259h-16.707c-1.87 0-3.391 1.521-3.391 3.39v11.841h-6.771c-1.399 0-2.537 1.138-2.537 2.536v12.697c0 1.399 1.138 2.536 2.537 2.536h6.771v7.616c0 1.866 1.521 3.384 3.391 3.384h25.372c1.87 0 3.391-1.517 3.391-3.382v-28.124c0-.219-.085-.429-.236-.587zm-11.61-9.623l9.202 9.562h-9.202v-9.562zm-27.078 29.023c-.466 0-.845-.379-.845-.844v-12.697c0-.465.379-.844.845-.844h22.849c.466 0 .845.379.845.844v12.697c0 .465-.379.844-.845.844h-22.849zm37.232 9.311c0 .931-.762 1.689-1.699 1.689h-25.372c-.937 0-1.699-.759-1.699-1.691v-7.617h14.386c1.399 0 2.537-1.138 2.537-2.536v-12.697c0-1.399-1.138-2.536-2.537-2.536h-14.386v-11.841c0-.936.762-1.697 1.699-1.697h15.224v11c0 .467.379.846.846.846h11v27.08zM22.949 28h-2.386c-.987 0-1.79-.785-1.79-1.75v-3.5c0-.965.803-1.75 1.79-1.75h2.386c.329 0 .597.261.597.583 0 .322-.267.583-.597.583h-2.386c-.329 0-.597.263-.597.583v3.5c0 .321.267.583.597.583h2.386c.329 0 .597.261.597.583 0 .322-.267.583-.597.583zM9.983 28h-2.386c-.329 0-.597-.261-.597-.583v-5.833c0-.322.267-.583.597-.583h2.386c.987 0 1.79.785 1.79 1.75v3.5c0 .965-.803 1.75-1.79 1.75zm-1.79-1.167h1.79c.329 0 .597-.263.597-.583v-3.5c0-.321-.267-.583-.597-.583h-1.79v4.667zM15.71 28h-1.193c-.987 0-1.79-.785-1.79-1.75v-3.5c0-.965.803-1.75 1.79-1.75h1.193c.987 0 1.79.785 1.79 1.75v3.5c0 .965-.803 1.75-1.79 1.75zm-1.193-5.833c-.329 0-.597.263-.597.583v3.5c0 .321.267.583.597.583h1.193c.329 0 .597-.263.597-.583v-3.5c0-.321-.267-.583-.597-.583h-1.193z" fill="#00696E"/></svg>