<svg width="44" height="44" viewBox="0 0 44 44" xmlns="http://www.w3.org/2000/svg" fill="none"><path d="M42.494 11.907l-11.21-11.648c-.16-.166-.38-.259-.61-.259h-16.707c-1.87 0-3.391 1.521-3.391 3.39v11.841h-6.771c-1.399 0-2.537 1.138-2.537 2.536v12.697c0 1.399 1.138 2.536 2.537 2.536h6.771v7.616c0 1.866 1.521 3.384 3.391 3.384h25.372c1.87 0 3.391-1.517 3.391-3.382v-28.124c0-.219-.085-.429-.236-.587zm-11.61-9.623l9.202 9.562h-9.202v-9.562zm-27.078 29.023c-.466 0-.845-.379-.845-.844v-12.697c0-.465.379-.844.845-.844h22.849c.466 0 .845.379.845.844v12.697c0 .465-.379.844-.845.844h-22.849zm37.232 9.311c0 .931-.762 1.689-1.699 1.689h-25.372c-.937 0-1.699-.759-1.699-1.691v-7.617h14.386c1.399 0 2.537-1.138 2.537-2.536v-12.697c0-1.399-1.138-2.536-2.537-2.536h-14.386v-11.841c0-.936.762-1.697 1.699-1.697h15.224v11c0 .467.379.846.846.846h11v27.08zM16.402 20.655h-1.468v7.268h1.468v-7.268zM9.917 26.698l3.981-4.903v-1.14h-5.32v1.229h3.386l-3.817 4.715v1.324h5.905v-1.225h-4.135zM22.947 21.475c-.281-.365-.63-.602-1.046-.712-.271-.073-.853-.109-1.745-.109h-2.355v7.268h1.468v-2.742h.957c.664 0 1.172-.035 1.522-.104.258-.056.512-.171.761-.345.25-.174.455-.412.617-.716.162-.304.243-.679.243-1.125 0-.578-.14-1.05-.421-1.415zm-1.257 2c-.111.162-.264.281-.459.357-.195.076-.582.114-1.16.114h-.803v-2.063h.709c.529 0 .881.017 1.056.05.238.043.434.15.59.322.155.172.233.39.233.654 0 .215-.055.403-.166.565z" fill="#00696E"/></svg>