<svg width="22" height="22" viewBox="0 0 22 22" xmlns="http://www.w3.org/2000/svg" fill="none"><path d="M18.778 14.222c-1.198-1.198-2.624-2.085-4.18-2.622 1.666-1.148 2.761-3.069 2.761-5.241 0-3.507-2.853-6.359-6.359-6.359-3.507 0-6.359 2.853-6.359 6.359 0 2.172 1.095 4.093 2.761 5.241-1.556.537-2.982 1.424-4.18 2.622-2.078 2.078-3.222 4.84-3.222 7.778h1.719c0-5.118 4.164-9.281 9.281-9.281 5.118 0 9.281 4.164 9.281 9.281h1.719c0-2.938-1.144-5.701-3.222-7.778zm-7.778-3.222c-2.559 0-4.641-2.082-4.641-4.641s2.082-4.641 4.641-4.641 4.641 2.082 4.641 4.641-2.082 4.641-4.641 4.641z" fill="#00696E"/></svg>