<svg width="34" height="44" viewBox="0 0 34 44" xmlns="http://www.w3.org/2000/svg" fill="none"><path d="M32.494 11.907l-11.21-11.648c-.16-.166-.38-.259-.61-.259h-16.707c-1.87 0-3.391 1.521-3.391 3.39v37.226c0 1.866 1.521 3.384 3.391 3.384h25.372c1.87 0 3.391-1.517 3.391-3.382v-28.124c0-.219-.085-.429-.236-.587zm-11.61-9.623l9.202 9.562h-9.202v-9.562zm10.154 38.334c0 .931-.762 1.689-1.699 1.689h-25.372c-.937 0-1.699-.759-1.699-1.691v-37.227000000000004c0-.936.762-1.697 1.699-1.697h15.224v11c0 .467.379.846.846.846h11v27.08z" fill="#00696E"/></svg>