<svg fill="none" xmlns="http://www.w3.org/2000/svg"><symbol id="bg" preserveAspectRatio="none" viewBox="0 0 500 500"><path fill="#DBECEC" d="M0 0h500v500H0z"/></symbol><symbol id="logo" viewBox="0 0 500 500"><path d="M307.253 294.707c-.094.06-.203.091-.314.091-.112 0-.221-.032-.315-.092-.093-.06-.168-.146-.215-.247-.047-.101-.063-.213-.049-.323.341-2.883-2.979.186-4.918 3.505-.862 1.551-2.084 2.872-3.563 3.853-2.061 1.316-3.596.822-4.495-1.451-.148-.327-.26-.67-.334-1.021-.619-3.092-1.745-6.059-3.332-8.784 1.104 0 2.183.064 3.249 0 4.494-.372 6.53-4.314 4.283-8.244-.995-1.636-2.384-2.998-4.039-3.961.285-.035.573-.052.86-.052 4.938.45 9.74 1.458 14.126 3.853 1.523.82 2.916 1.86 4.135 3.088 1.778 1.804 1.765 3.82.109 5.721-.91.983-1.919 1.87-3.011 2.645-.681.494-1.407.944-2.177 1.419zM279.342 269.435c.053.066.087.145.097.228.01.084-.003.168-.038.244-.036.077-.092.142-.162.187-.071.046-.153.072-.237.073-2.209.045.45 2.228 3.159 3.339 1.267.487 2.399 1.271 3.3 2.286 1.207 1.412.996 2.626-.642 3.551-.231.149-.478.269-.738.359-2.264.796-4.383 1.956-6.273 3.435-.122-.828-.18-1.65-.36-2.446-.751-3.358-3.936-4.495-6.671-2.369-1.132.922-2.015 2.115-2.568 3.467-.058-.211-.101-.426-.128-.642-.18-3.769.077-7.5 1.406-11.063.468-1.236 1.117-2.396 1.926-3.442 1.168-1.528 2.697-1.733 4.302-.68.837.582 1.612 1.249 2.311 1.99.456.456.873.957 1.316 1.483zM325.879 268.793c-.078.079-.177.133-.286.158-.108.024-.221.017-.326-.021-.104-.038-.195-.105-.263-.193-.068-.087-.11-.193-.12-.303-.327-2.883-2.863.86-4 4.533-.475 1.712-1.356 3.284-2.568 4.584-1.708 1.746-3.313 1.618-4.726-.385-.216-.288-.401-.598-.552-.925-1.306-2.87-3.076-5.506-5.239-7.801 1.072-.257 2.144-.43 3.159-.758 4.302-1.38 5.38-5.682 2.305-8.988-1.343-1.365-3.005-2.374-4.835-2.935.27-.1.547-.182.828-.244 4.912-.687 9.818-.789 14.633.527 1.67.455 3.264 1.151 4.732 2.067 2.138 1.355 2.568 3.326 1.4 5.548-.667 1.163-1.45 2.256-2.337 3.261-.559.649-1.163 1.233-1.805 1.875zM190.525 291.991c.131.079.282.119.434.117.153-.003.302-.05.43-.133.127-.084.228-.203.292-.342.063-.139.085-.293.064-.445-.513-3.942 4.09.206 6.793 4.72 1.203 2.12 2.899 3.919 4.944 5.245 2.845 1.772 4.938 1.073 6.151-2.054.195-.455.344-.928.443-1.413.694-4.302 2.382-8.244 4.411-12.084-1.509 0-2.985.129-4.449 0-6.164-.43-8.989-5.778-6.003-11.223 1.341-2.254 3.221-4.14 5.47-5.49-.395-.041-.791-.058-1.188-.051-6.748.7-13.304 2.157-19.262 5.483-2.073 1.152-3.966 2.601-5.618 4.302-2.401 2.491-2.343 5.259-.045 7.833 1.263 1.33 2.659 2.526 4.167 3.57.905.719 1.907 1.323 2.966 1.965zM233.242 203.168c-.095.06-.169.146-.214.249-.045.103-.057.217-.037.327.021.11.075.211.154.29.079.08.18.134.29.155 2.908.674-1.387 2.709-5.368 3.371-1.839.267-3.595.945-5.136 1.984-2.139 1.463-2.293 3.049-.469 4.674.261.243.547.459.854.642 2.683 1.615 5.072 3.675 7.062 6.093.45-1.021.822-2.048 1.342-3.011 2.177-4.045 6.793-4.585 9.67-1.156 1.169 1.488 1.918 3.261 2.17 5.137.148-.256.281-.519.398-.79 1.567-4.732 2.568-9.535 2.042-14.427-.17-1.69-.604-3.343-1.284-4.899-1.015-2.267-2.96-2.947-5.464-2.055-1.311.51-2.57 1.142-3.763 1.888-.725.456-1.476.976-2.247 1.528zM222.565 286.495c-.035.048-.056.104-.061.163-.004.059.008.118.036.17.027.052.069.096.12.125.051.03.109.045.168.043 1.541-.039-.238 1.567-2.087 2.433-.867.376-1.63.958-2.221 1.695-.79 1.028-.604 1.856.552 2.453.168.092.344.167.526.225 1.608.474 3.126 1.209 4.495 2.176.051-.577.064-1.155.167-1.714.411-2.356 2.568-3.21 4.558-1.868.827.601 1.489 1.4 1.926 2.324.031-.148.053-.298.065-.449.078-2.616-.379-5.221-1.342-7.654-.364-.842-.849-1.627-1.438-2.331-.166-.234-.379-.431-.627-.577-.247-.146-.523-.237-.808-.268-.286-.031-.575-.001-.848.089-.272.089-.523.235-.735.429-.562.432-1.079.92-1.541 1.457-.321.334-.597.713-.905 1.079zM268.363 200.818c-.134.004-.263.045-.375.119-.111.075-.199.179-.254.3-.055.122-.074.257-.056.39.018.132.073.257.159.359 2.221 2.697-3.147 1.753-7.281-.353-1.89-1.021-3.998-1.571-6.145-1.605-2.947 0-4.18 1.509-3.628 4.411.062.439.172.869.328 1.284 1.389 3.533 2.185 7.271 2.356 11.063 1.117-.719 2.17-1.496 3.313-2.1 4.803-2.568 9.432.116 9.727 5.567.054 2.309-.467 4.594-1.515 6.652.313-.15.616-.322.906-.514 4.712-3.672 8.924-7.826 11.833-13.104 1.009-1.828 1.745-3.795 2.183-5.837.642-2.985-.713-5.027-3.628-5.868-1.566-.401-3.169-.642-4.783-.719-1.021-.077-2.068-.064-3.14-.045zM250.173 171.257c-.118.067-.215.167-.278.288-.063.121-.09.258-.077.394.013.136.065.265.149.372.085.107.199.187.328.23 3.275 1.233-1.849 3.095-6.478 3.339-2.147.059-4.248.633-6.125 1.676-2.569 1.483-2.87 3.396-.938 5.637.273.338.578.648.912.925 2.976 2.369 5.539 5.215 7.583 8.424.61-1.182 1.13-2.376 1.817-3.474 2.883-4.616 8.231-4.616 11.21-.032 1.202 1.971 1.892 4.211 2.01 6.517.197-.288.375-.588.533-.899 2.241-5.541 3.814-11.243 3.698-17.265-.039-2.088-.385-4.158-1.027-6.145-.95-2.895-3.127-4-6.074-3.274-1.554.436-3.059 1.028-4.495 1.765-.943.431-1.823.957-2.748 1.522zM304.107 254.629c-.029.139-.097.266-.196.368-.098.102-.224.174-.361.207-.138.034-.282.028-.416-.017-.135-.045-.254-.127-.343-.237-2.376-2.85-2.453 2.928-1.073 7.647.687 2.17.843 4.473.456 6.716-.59 3.069-2.401 4.058-5.31 2.909-.435-.155-.852-.355-1.245-.597-3.39-2.254-7.166-3.596-11.076-4.642.963-1.021 1.978-1.965 2.838-3.031 3.615-4.494 1.746-9.849-3.852-11.23-2.395-.515-4.88-.425-7.23.264.222-.297.462-.58.719-.848 4.758-4.18 9.92-7.743 15.981-9.727 2.103-.691 4.297-1.068 6.511-1.117 3.21-.065 5.091 1.727 5.399 4.937.108 1.715.042 3.436-.199 5.137-.128 1.059-.346 2.125-.603 3.261zM213.434 263.368c.034.131.102.252.198.347.096.096.217.164.348.197.132.033.27.03.4-.009.13-.04.247-.114.338-.214 2.37-2.844 2.453 2.934 1.073 7.653-.687 2.168-.843 4.469-.456 6.71.591 3.075 2.395 4.058 5.31 2.915.446-.162.874-.368 1.277-.617 3.412-2.145 7.154-3.714 11.076-4.642-.963-1.027-1.977-1.964-2.838-3.037-3.615-4.494-1.746-9.843 3.853-11.223 2.393-.518 4.878-.43 7.229.257-.223-.294-.463-.575-.719-.841-4.758-4.18-9.92-7.744-15.981-9.734-2.094-.674-4.273-1.044-6.472-1.098-3.21-.058-5.092 1.734-5.4 4.938-.111 1.714-.044 3.435.199 5.136.109 1.066.328 2.132.565 3.262zM211.938 179.655c.145-.02.293.002.425.065.132.062.244.162.32.287.076.125.115.269.11.415-.004.147-.052.288-.136.408-1.926 3.153 3.558 1.406 7.603-1.387 1.839-1.344 3.975-2.225 6.228-2.568 3.101-.411 4.603.995 4.43 4.122-.007.461-.063.919-.167 1.368-1.072 3.929-1.162 7.929-.918 11.974-1.284-.59-2.491-1.284-3.776-1.74-5.419-2.016-9.913 1.445-9.432 7.217.267 2.433 1.137 4.761 2.53 6.774-.351-.115-.694-.252-1.027-.411-5.471-3.21-10.479-6.973-14.273-12.103-1.319-1.779-2.37-3.741-3.121-5.824-1.078-3.049.039-5.38 2.986-6.677 1.585-.646 3.234-1.126 4.918-1.432 1.085-.225 2.151-.353 3.3-.488zM328.698 234.52c-.02.126-.076.243-.163.337-.086.093-.198.159-.322.189-.124.029-.254.021-.373-.023-.12-.045-.223-.124-.298-.227-2.074-2.491-2.144 2.568-.937 6.69.603 1.896.739 3.909.398 5.869-.52 2.69-2.1 3.55-4.642 2.568-.38-.137-.746-.311-1.092-.52-2.98-1.881-6.252-3.252-9.682-4.058.841-.899 1.734-1.721 2.478-2.658 3.166-3.93 1.528-8.61-3.39-9.817-2.092-.451-4.264-.371-6.318.231.2-.259.414-.505.642-.738 4.161-3.66 8.675-6.774 13.978-8.508 1.833-.609 3.745-.946 5.676-1.001 2.825-.052 4.456 1.515 4.719 4.321.097 1.5.039 3.006-.173 4.494-.103.925-.296 1.856-.501 2.851zM295.985 219.277c.027.108.025.221-.005.328-.03.107-.087.205-.166.283-.079.079-.177.135-.284.164-.108.029-.221.03-.329.002-2.863-.995-.488 3.082 2.46 5.779 1.391 1.224 2.468 2.766 3.139 4.494.873 2.395 0 3.853-2.497 4.27-.368.072-.743.107-1.118.103-3.291-.07-6.571.405-9.708 1.406.244-1.124.559-2.209.713-3.32.642-4.668-2.915-7.627-7.429-6.234-1.892.64-3.594 1.743-4.95 3.21.026-.301.076-.599.148-.892 1.573-4.925 3.685-9.593 7.101-13.529 1.183-1.364 2.559-2.55 4.084-3.518 2.24-1.4 4.295-.925 5.855 1.194.796 1.15 1.471 2.379 2.016 3.666.366.861.662 1.702.97 2.594zM286.193 180.612c.065.091.104.198.115.309.01.111-.009.224-.055.325-.046.102-.117.19-.208.256-.09.065-.196.106-.308.118-3.024.09.643 3.05 4.373 4.546 1.741.646 3.299 1.706 4.539 3.088 1.676 1.926 1.4 3.583-.802 4.88-.319.198-.657.364-1.008.494-3.098 1.111-5.992 2.725-8.565 4.777-.174-1.136-.264-2.26-.521-3.351-1.065-4.585-5.444-6.081-9.168-3.166-1.537 1.279-2.731 2.921-3.474 4.777-.075-.292-.135-.587-.18-.886-.289-5.136 0-10.273 1.805-15.172.618-1.699 1.484-3.298 2.568-4.745 1.592-2.106 3.679-2.401 5.888-.982 1.16.79 2.236 1.698 3.21 2.71.631.643 1.229 1.318 1.791 2.022zM320.12 201.864c-.004.147-.05.29-.133.411-.083.122-.199.217-.335.273-.135.057-.285.074-.429.048-.145-.025-.279-.092-.387-.192-2.851-2.466-1.978 3.338.18 7.846 1.049 2.061 1.587 4.345 1.566 6.658-.09 3.21-1.74 4.494-4.847 3.788-.462-.082-.913-.211-1.349-.385-3.769-1.708-7.775-2.434-11.871-2.832.802-1.188 1.663-2.298 2.35-3.512 2.882-5.136.128-10.157-5.74-10.62-2.486-.121-4.962.38-7.204 1.458.172-.333.365-.654.577-.963 4.084-4.976 8.675-9.406 14.428-12.392 1.994-1.042 4.132-1.782 6.343-2.196 3.211-.591 5.387.893 6.222 4.064.387 1.686.602 3.407.642 5.137.083 1.13.026 2.234-.013 3.409zM204.933 228.594c-.008.143.024.287.095.413.07.125.175.228.302.296.128.068.272.097.415.085.144-.012.281-.065.395-.152 2.973-2.216 1.695 3.422-.751 7.704-1.174 1.949-1.866 4.151-2.016 6.421-.141 3.127 1.381 4.495 4.495 4.077.458-.05.909-.147 1.348-.289 3.852-1.399 7.807-1.823 11.859-1.926-.7-1.226-1.47-2.382-2.055-3.621-2.459-5.214.642-9.978 6.421-10.004 2.446.052 4.841.714 6.966 1.927-.146-.339-.311-.669-.494-.989-3.647-5.175-7.833-9.849-13.265-13.201-1.881-1.164-3.924-2.044-6.061-2.613-3.133-.816-5.361.488-6.421 3.538-.505 1.635-.843 3.317-1.008 5.02-.154 1.066-.193 2.158-.225 3.314zM177.453 206.924c-.014.159.018.319.091.461.073.142.185.26.323.342.137.081.295.122.455.117.159-.005.315-.054.447-.143 3.512-2.292 1.689 3.981-1.361 8.636-1.463 2.119-2.394 4.559-2.716 7.114-.372 3.518 1.252 5.181 4.784 4.899.522-.022 1.041-.099 1.547-.231 4.411-1.317 8.937-1.529 13.515-1.362-.706-1.425-1.496-2.78-2.067-4.218-2.427-6.061 1.368-11.23 7.904-10.889 2.729.154 5.136 1.136 7.705 2.671-.144-.39-.309-.772-.495-1.143-3.737-6.081-8.135-11.641-14.048-15.795-2.049-1.439-4.296-2.572-6.671-3.365-3.48-1.13-6.087.193-7.474 3.564-.683 1.811-1.178 3.687-1.477 5.599-.216 1.239-.371 2.488-.462 3.743zM172.483 253.551c.079.133.194.241.332.312.138.071.293.102.447.088.155-.013.302-.07.426-.164.123-.093.218-.22.272-.365 1.477-3.782 3.564 2.19 3.769 7.57.016 2.498.64 4.955 1.817 7.159 1.676 2.986 3.897 3.384 6.524 1.182.396-.311.76-.662 1.085-1.047 2.735-3.519 6.189-6.222 9.887-8.655-1.354-.732-2.735-1.355-4-2.17-5.31-3.416-5.22-9.631.142-12.996 2.228-1.412 4.7-2.003 7.589-2.234-.331-.236-.676-.45-1.034-.642-6.421-2.69-12.982-4.604-19.962-4.565-2.422.016-4.83.386-7.146 1.098-3.377 1.053-4.687 3.557-3.891 6.992.475 1.812 1.138 3.57 1.978 5.245.481 1.06 1.123 2.094 1.765 3.192zM255.413 229.865c.178.062.336.173.454.32.117.148.191.327.211.514.02.188-.014.378-.097.548-.084.169-.214.311-.376.409-4.173 2.646 3.448 3.75 9.92 2.742 2.985-.535 6.055-.343 8.951.559 3.955 1.284 4.95 3.852 2.927 7.518-.277.549-.612 1.065-1.001 1.541-3.564 4.09-5.991 8.841-8.039 13.837-1.188-1.458-2.26-2.96-3.525-4.277-5.316-5.553-12.706-4.006-15.506 3.211-1.162 2.998-1.284 6.087-.899 9.592-.35-.342-.68-.704-.988-1.085-4.707-7.037-8.527-14.478-10.113-22.825-.547-2.897-.666-5.859-.353-8.79.475-4.283 3.165-6.421 7.454-6.28 2.277.149 4.531.532 6.729 1.143 1.419.341 2.793.816 4.251 1.323z" fill="#fff"/><path d="M290.425 283.426s-6.126 5.323-10.119 8.251c-4.755 3.472-8.857 7.758-12.116 12.661-3.788 5.65-4.495 9.522-3.435 15.3.937 4.996 5.618 10.614 6.234 11.461-1.862-1.47-11.063-6.786-13.727-18.331-1.875-8.115-1.58-15.518-.784-22.973.829-7.511 2.085-14.969 3.763-22.337 1.233-4.829 2.703-9.137 3.73-10.761-.312 2.342-.49 4.7-.533 7.063-.107 3.175-.032 6.354.225 9.521.373 5.073.7 9.747 2.934 11.641 1.927 1.624 5.323 2.132 9.054 1.862 3.73-.27 14.774-3.358 14.774-3.358zM215.264 297.295s4.347 3.775 7.178 5.855c3.372 2.466 6.28 5.509 8.591 8.989 2.684 4.007 3.211 6.748 2.434 10.845-.642 3.544-3.981 7.531-4.418 8.128 1.317-1.04 7.846-4.809 9.734-12.995 1.329-5.779 1.117-11.005.552-16.289-.578-5.331-1.461-10.624-2.645-15.853-.88-3.422-1.926-6.479-2.652-7.628.225 1.652.354 3.316.385 4.983.074 2.252.02 4.507-.16 6.754-.263 3.596-.494 6.909-2.08 8.251-1.362 1.149-3.776 1.509-6.421 1.322-2.645-.186-10.498-2.362-10.498-2.362z" fill="#fff"/></symbol><use xmlns:xlink="http://www.w3.org/1999/xlink" xlink:href="#bg"/><use xmlns:xlink="http://www.w3.org/1999/xlink" xlink:href="#logo"/></svg>