<svg width="251" height="253" viewBox="0 0 251 253" xmlns="http://www.w3.org/2000/svg" fill="none"><path d="M214.723 196.691c-.145.092-.313.14-.485.14-.171 0-.339-.049-.484-.142-.145-.093-.26-.225-.332-.38-.072-.156-.098-.33-.075-.5.525-4.445-4.594.287-7.584 5.406-1.33 2.391-3.215 4.428-5.495 5.941-3.178 2.029-5.544 1.267-6.93-2.238-.23-.504-.402-1.032-.515-1.574-.956-4.767-2.692-9.343-5.139-13.544 1.703 0 3.366.099 5.01 0 6.931-.575 10.069-6.654 6.604-12.713-1.534-2.524-3.675-4.624-6.228-6.109.44-.053.884-.079 1.327-.079 7.614.693 15.019 2.247 21.782 5.94 2.348 1.265 4.497 2.87 6.376 4.763 2.742 2.782 2.722 5.891.168 8.821-1.403 1.517-2.959 2.884-4.643 4.079-1.05.763-2.169 1.456-3.357 2.189zM171.684 157.721c.082.101.134.222.149.351.016.129-.004.259-.059.377-.055.117-.141.217-.25.288-.108.071-.235.11-.364.112-3.406.07.693 3.436 4.871 5.149 1.954.75 3.699 1.959 5.089 3.525 1.861 2.178 1.535 4.049-.99 5.475-.356.23-.738.416-1.139.554-3.491 1.228-6.758 3.017-9.673 5.297-.188-1.277-.277-2.544-.554-3.772-1.159-5.178-6.07-6.931-10.287-3.654-1.746 1.424-3.108 3.262-3.961 5.347-.089-.325-.155-.656-.198-.99-.277-5.812.119-11.564 2.169-17.059.722-1.906 1.723-3.695 2.97-5.307 1.802-2.357 4.158-2.673 6.633-1.05 1.291.898 2.486 1.926 3.565 3.07.703.703 1.346 1.475 2.029 2.287zM243.445 156.731c-.121.121-.274.205-.441.243-.167.037-.341.026-.502-.032-.161-.058-.302-.161-.407-.297-.105-.135-.169-.298-.184-.468-.505-4.446-4.416 1.326-6.168 6.99-.733 2.64-2.092 5.065-3.961 7.069-2.633 2.693-5.109 2.495-7.287-.594-.334-.444-.619-.922-.851-1.426-2.014-4.426-4.744-8.491-8.079-12.029 1.653-.396 3.307-.664 4.871-1.169 6.633-2.128 8.297-8.762 3.554-13.861-2.07-2.104-4.633-3.659-7.455-4.524.416-.155.843-.281 1.277-.377 7.574-1.059 15.139-1.217 22.564.812 2.575.702 5.033 1.776 7.297 3.188 3.297 2.089 3.96 5.129 2.158 8.555-1.028 1.793-2.236 3.478-3.604 5.029-.861 1-1.792 1.901-2.782 2.891zM34.727 192.502c.202.122.434.185.669.18.236-.005.465-.076.662-.205.197-.13.353-.312.45-.527.097-.214.132-.452.1-.685-.792-6.079 6.307.317 10.475 7.277 1.854 3.27 4.469 6.044 7.624 8.089 4.386 2.732 7.614 1.653 9.485-3.168.3-.702.529-1.431.683-2.179 1.069-6.633 3.673-12.712 6.802-18.633-2.327 0-4.604.198-6.861 0-9.505-.663-13.861-8.911-9.257-17.307 2.069-3.475 4.967-6.384 8.435-8.465-.608-.063-1.22-.089-1.832-.079-10.406 1.079-20.514 3.327-29.702 8.455-3.197 1.776-6.115 4.011-8.663 6.634-3.703 3.841-3.614 8.109-.069 12.079 1.948 2.05 4.101 3.895 6.426 5.505 1.396 1.109 2.941 2.039 4.574 3.029zM100.597 55.535c-.146.092-.261.226-.33.385-.069.158-.089.334-.057.504.032.17.115.326.236.448.122.122.278.205.448.238 4.485 1.04-2.139 4.178-8.277 5.198-2.836.413-5.543 1.459-7.921 3.059-3.297 2.257-3.535 4.703-.723 7.208.403.376.844.708 1.317.99 4.138 2.49 7.821 5.668 10.891 9.396.693-1.574 1.267-3.158 2.069-4.644 3.357-6.237 10.475-7.069 14.911-1.782 1.802 2.294 2.958 5.029 3.346 7.921.229-.394.434-.8.614-1.218 2.416-7.297 3.961-14.703 3.149-22.247-.263-2.606-.931-5.155-1.98-7.554-1.565-3.495-4.565-4.544-8.426-3.168-2.021.786-3.964 1.761-5.802 2.911-1.119.703-2.277 1.505-3.465 2.356zM84.132 184.028c-.054.073-.086.16-.093.251-.007.09.012.181.054.262.042.08.107.147.185.193.079.046.168.069.259.066 2.376-.06-.366 2.416-3.218 3.752-1.337.58-2.513 1.477-3.426 2.614-1.218 1.584-.931 2.861.852 3.782.259.142.531.258.812.347 2.479.73 4.82 1.864 6.931 3.356.079-.891.099-1.782.257-2.644.634-3.633 3.96-4.95 7.03-2.881 1.274.928 2.296 2.16 2.97 3.584.047-.228.08-.46.099-.693.121-4.033-.583-8.049-2.069-11.801-.561-1.299-1.308-2.51-2.218-3.594-.255-.362-.584-.666-.966-.89-.382-.225-.806-.366-1.247-.414-.44-.048-.886-.001-1.306.136-.421.138-.808.364-1.134.663-.867.665-1.663 1.419-2.376 2.247-.495.515-.921 1.099-1.396 1.664zM154.754 51.911c-.206.006-.406.07-.577.184-.172.114-.308.275-.392.463-.085.188-.115.396-.087.6.028.204.112.396.244.555 3.426 4.158-4.851 2.703-11.227-.544-2.914-1.574-6.164-2.423-9.475-2.475-4.545 0-6.446 2.327-5.594 6.802.095.677.264 1.341.505 1.98 2.142 5.448 3.369 11.211 3.633 17.059 1.723-1.109 3.347-2.307 5.109-3.238 7.406-3.96 14.544.178 15 8.584.082 3.56-.721 7.084-2.337 10.257.483-.232.95-.496 1.396-.792 7.268-5.663 13.762-12.069 18.247-20.208 1.557-2.819 2.691-5.851 3.367-9 .99-4.604-1.099-7.752-5.594-9.049-2.415-.619-4.886-.99-7.376-1.109-1.575-.119-3.188-.099-4.842-.069zM126.705 6.328c-.183.104-.332.258-.43.444-.097.187-.138.397-.118.607.02.209.1.409.231.574.13.165.306.288.505.356 5.05 1.901-2.851 4.772-9.99 5.148-3.31.091-6.55.977-9.445 2.584-3.96 2.287-4.426 5.238-1.445 8.693.42.521.891.998 1.405 1.426 4.59 3.653 8.541 8.043 11.693 12.99.941-1.822 1.743-3.663 2.802-5.356 4.446-7.119 12.693-7.119 17.287-.05 1.853 3.04 2.918 6.494 3.099 10.049.304-.444.578-.907.822-1.386 3.455-8.544 5.881-17.336 5.703-26.623-.06-3.219-.594-6.412-1.585-9.475-1.465-4.465-4.821-6.168-9.366-5.049-2.395.673-4.717 1.585-6.93 2.723-1.456.663-2.812 1.475-4.238 2.346zM209.872 134.89c-.045.213-.15.41-.302.567-.152.157-.345.267-.557.319-.212.052-.435.043-.642-.027-.207-.069-.39-.195-.529-.364-3.663-4.396-3.782 4.515-1.653 11.792 1.059 3.346 1.3 6.897.703 10.356-.911 4.732-3.703 6.257-8.188 4.485-.671-.238-1.315-.547-1.921-.921-5.228-3.475-11.049-5.544-17.079-7.158 1.485-1.574 3.05-3.03 4.376-4.673 5.574-6.931 2.693-15.188-5.94-17.317-3.692-.795-7.524-.656-11.149.406.343-.458.713-.894 1.109-1.307 7.337-6.445 15.297-11.94 24.643-14.999 3.244-1.066 6.627-1.647 10.04-1.723 4.95-.099 7.851 2.663 8.326 7.614.167 2.643.064 5.297-.307 7.92-.198 1.634-.534 3.277-.93 5.03zM70.053 148.365c.051.203.157.388.305.536.148.148.334.253.537.304.203.05.416.045.617-.016.2-.06.381-.174.521-.329 3.653-4.386 3.782 4.525 1.654 11.802-1.059 3.343-1.3 6.891-.703 10.346.911 4.742 3.693 6.257 8.188 4.495.687-.249 1.348-.567 1.97-.951 5.261-3.308 11.031-5.727 17.079-7.158-1.486-1.584-3.05-3.029-4.377-4.683-5.574-6.93-2.693-15.178 5.941-17.306 3.691-.799 7.523-.663 11.148.396-.345-.453-.715-.886-1.109-1.297-7.336-6.446-15.296-11.941-24.643-15.01-3.229-1.039-6.59-1.609-9.98-1.693-4.95-.089-7.851 2.673-8.326 7.614-.171 2.643-.068 5.298.307 7.92.168 1.644.505 3.287.871 5.03zM67.746 19.278c.223-.031.451.004.655.1.204.096.375.25.493.443.118.192.177.415.17.64-.007.226-.08.444-.209.629-2.97 4.861 5.485 2.168 11.722-2.139 2.836-2.074 6.131-3.432 9.604-3.96 4.782-.634 7.099 1.535 6.832 6.356-.011.71-.097 1.417-.257 2.109-1.653 6.059-1.792 12.228-1.416 18.465-1.98-.911-3.841-1.98-5.822-2.683-8.356-3.109-15.287 2.228-14.544 11.129.412 3.752 1.752 7.342 3.901 10.445-.541-.177-1.07-.389-1.584-.634-8.435-4.95-16.158-10.752-22.009-18.663-2.033-2.743-3.654-5.768-4.812-8.98-1.663-4.703.059-8.297 4.604-10.297 2.445-.997 4.986-1.736 7.584-2.208 1.673-.346 3.317-.545 5.089-.753zM247.792 103.88c-.03.194-.118.375-.251.52-.133.144-.306.245-.497.291-.191.046-.392.033-.576-.035-.184-.069-.344-.19-.458-.35-3.198-3.841-3.307 3.96-1.446 10.317.93 2.923 1.141 6.027.614 9.049-.802 4.148-3.237 5.475-7.158 3.96-.586-.21-1.15-.479-1.683-.802-4.595-2.899-9.641-5.014-14.931-6.257 1.297-1.386 2.674-2.653 3.822-4.099 4.881-6.059 2.356-13.277-5.228-15.138-3.226-.695-6.575-.573-9.742.356.307-.399.638-.779.99-1.138 6.416-5.644 13.376-10.446 21.554-13.119 2.827-.939 5.775-1.46 8.752-1.544 4.357-.079 6.872 2.337 7.278 6.663.149 2.313.06 4.636-.268 6.931-.158 1.426-.455 2.862-.772 4.396zM197.347 80.376c.042.166.039.341-.007.506-.046.165-.134.316-.256.436-.122.121-.273.208-.439.253-.165.045-.339.046-.506.003-4.415-1.535-.752 4.752 3.792 8.911 2.147 1.888 3.807 4.266 4.842 6.931 1.346 3.693 0 5.941-3.851 6.584-.568.112-1.145.165-1.723.159-5.076-.108-10.134.624-14.97 2.168.376-1.733.861-3.406 1.099-5.119.99-7.198-4.495-11.762-11.455-9.613-2.918.987-5.543 2.689-7.634 4.95.041-.464.117-.924.228-1.376 2.425-7.594 5.683-14.792 10.95-20.861 1.825-2.104 3.946-3.932 6.297-5.426 3.455-2.158 6.624-1.426 9.029 1.841 1.227 1.773 2.269 3.668 3.109 5.653.565 1.327 1.02 2.624 1.495 4zM182.249 20.753c.099.141.16.305.176.477.016.171-.013.344-.084.501-.071.157-.181.293-.321.394-.139.101-.303.164-.474.183-4.664.139.99 4.703 6.742 7.01 2.685.996 5.087 2.631 7 4.762 2.584 2.97 2.158 5.525-1.238 7.525-.491.305-1.012.561-1.554.762-4.777 1.713-9.24 4.202-13.208 7.366-.267-1.752-.406-3.485-.802-5.168-1.643-7.069-8.395-9.376-14.138-4.881-2.37 1.972-4.211 4.504-5.356 7.366-.117-.45-.209-.906-.277-1.366-.446-7.921 0-15.841 2.782-23.396.954-2.62 2.288-5.085 3.96-7.317 2.455-3.248 5.673-3.703 9.079-1.515 1.79 1.218 3.449 2.618 4.95 4.178.973.992 1.895 2.033 2.763 3.119zM234.564 53.525c-.006.227-.077.447-.205.634s-.307.333-.516.421c-.209.088-.439.113-.662.074-.224-.04-.431-.143-.597-.297-4.396-3.802-3.049 5.148.277 12.099 1.619 3.179 2.448 6.7 2.416 10.267-.138 4.95-2.683 6.931-7.475 5.841-.711-.127-1.408-.326-2.079-.594-5.812-2.634-11.99-3.752-18.307-4.366 1.238-1.832 2.565-3.544 3.624-5.416 4.446-7.921.198-15.663-8.851-16.376-3.832-.187-7.651.586-11.109 2.247.266-.513.564-1.009.891-1.485 6.297-7.673 13.376-14.505 22.247-19.108 3.075-1.606 6.372-2.747 9.782-3.386 4.951-.911 8.307 1.376 9.594 6.267.596 2.6.928 5.254.99 7.921.129 1.742.04 3.446-.02 5.257zM56.944 94.742c-.014.222.037.443.145.637.108.194.271.352.467.457.196.104.418.15.64.132.222-.018.433-.1.609-.235 4.584-3.416 2.614 5.277-1.158 11.881-1.811 3.005-2.877 6.4-3.109 9.901-.218 4.822 2.129 6.93 6.931 6.287.706-.078 1.403-.227 2.079-.446 5.941-2.158 12.039-2.811 18.287-2.97-1.079-1.891-2.267-3.673-3.168-5.584-3.792-8.039.99-15.386 9.901-15.425 3.772.08 7.465 1.101 10.742 2.97-.226-.522-.48-1.031-.762-1.525-5.624-7.98-12.079-15.188-20.455-20.356-2.901-1.794-6.05-3.152-9.346-4.03-4.832-1.257-8.267.752-9.901 5.455-.779 2.522-1.299 5.116-1.554 7.743-.238 1.643-.297 3.327-.346 5.109zM14.569 61.327c-.021.245.027.492.14.711.113.219.285.402.498.527.212.125.455.188.702.181.246-.007.485-.084.69-.221 5.416-3.535 2.604 6.139-2.099 13.317-2.256 3.268-3.692 7.03-4.188 10.97-.574 5.426 1.931 7.99 7.376 7.554.806-.033 1.606-.153 2.386-.356 6.802-2.03 13.782-2.356 20.841-2.099-1.089-2.198-2.307-4.287-3.188-6.505-3.742-9.346 2.109-17.316 12.188-16.792 4.208.238 7.921 1.752 11.881 4.119-.221-.601-.475-1.19-.762-1.762-5.762-9.376-12.544-17.95-21.663-24.356-3.16-2.218-6.625-3.966-10.287-5.188-5.366-1.742-9.386.297-11.524 5.495-1.053 2.792-1.816 5.685-2.277 8.633-.334 1.911-.572 3.837-.713 5.772zM6.905 133.227c.122.206.299.373.511.482.212.109.452.156.69.136.238-.021.465-.109.656-.253.19-.144.336-.34.42-.563 2.277-5.832 5.495 3.376 5.812 11.673.025 3.852.987 7.641 2.802 11.039 2.584 4.604 6.01 5.218 10.059 1.822.612-.479 1.173-1.02 1.673-1.614 4.218-5.426 9.544-9.594 15.247-13.346-2.089-1.129-4.218-2.089-6.168-3.347-8.188-5.267-8.049-14.851.218-20.039 3.436-2.178 7.247-3.089 11.703-3.445-.51-.364-1.042-.695-1.594-.99-9.901-4.149-20.019-7.099-30.782-7.04-3.736.026-7.448.596-11.02 1.693-5.208 1.624-7.228 5.485-6 10.782.733 2.795 1.755 5.506 3.049 8.089.743 1.634 1.733 3.228 2.723 4.921zM134.784 96.702c.276.095.519.266.7.494.182.228.295.503.326.793.031.29-.021.582-.15.844-.129.261-.33.48-.579.632-6.435 4.079 5.317 5.782 15.297 4.227 4.603-.825 9.337-.529 13.802.862 6.099 1.98 7.633 5.94 4.514 11.593-.427.846-.944 1.643-1.544 2.377-5.495 6.306-9.238 13.633-12.396 21.336-1.832-2.248-3.485-4.565-5.435-6.594-8.198-8.564-19.594-6.178-23.911 4.95-1.792 4.624-1.98 9.386-1.386 14.792-.54-.528-1.05-1.086-1.525-1.673-7.257-10.852-13.148-22.327-15.593-35.198-.844-4.467-1.028-9.033-.545-13.554.733-6.604 4.881-9.901 11.495-9.683 3.51.229 6.987.819 10.376 1.762 2.188.525 4.307 1.257 6.554 2.04zM188.773 179.295s-9.445 8.208-15.603 12.723c-7.332 5.354-13.657 11.964-18.683 19.524-5.842 8.713-6.931 14.683-5.297 23.594 1.445 7.702 8.663 16.366 9.614 17.673-2.872-2.268-17.059-10.466-21.168-28.267-2.891-12.515-2.436-23.93-1.208-35.425 1.277-11.583 3.214-23.083 5.802-34.445 1.901-7.446 4.168-14.089 5.752-16.594-.482 3.612-.756 7.248-.822 10.891-.166 4.897-.05 9.799.347 14.683.574 7.822 1.079 15.029 4.524 17.95 2.971 2.505 8.208 3.287 13.961 2.871 5.752-.416 22.781-5.178 22.781-5.178zM72.874 200.681s6.703 5.821 11.069 9.029c5.199 3.803 9.684 8.496 13.247 13.861 4.138 6.178 4.95 10.406 3.752 16.723-.99 5.465-6.138 11.613-6.811 12.534 2.03-1.604 12.099-7.416 15.01-20.039 2.05-8.911 1.723-16.97.852-25.118-.891-8.22-2.253-16.382-4.08-24.445-1.356-5.278-2.97-9.99-4.089-11.763.348 2.548.546 5.113.594 7.683.114 3.474.031 6.952-.247 10.416-.406 5.544-.762 10.653-3.208 12.723-2.099 1.772-5.822 2.326-9.901 2.039-4.079-.287-16.188-3.643-16.188-3.643z" fill="#00595D"/></svg>