<svg width="30" height="30" viewBox="0 0 30 30" xmlns="http://www.w3.org/2000/svg" fill="none"><path d="M28.973 8.119l-7.643-7.942c-.109-.113-.259-.177-.416-.177h-11.391c-1.275 0-2.312 1.037-2.312 2.311v8.074h-4.616c-.954 0-1.73.776-1.73 1.729v8.657c0 .953.776 1.729 1.73 1.729h4.616v5.193c0 1.272 1.037 2.307 2.312 2.307h17.299c1.275 0 2.312-1.034 2.312-2.306v-19.176c0-.149-.058-.293-.161-.4zm-7.916-6.561l6.274 6.519h-6.274v-6.519zm-18.463 19.789c-.318 0-.576-.258-.576-.575v-8.657c0-.317.258-.575.576-.575h15.579c.318 0 .576.258.576.575v8.657c0 .317-.258.575-.576.575h-15.579zm25.386 6.348c0 .635-.52 1.152-1.158 1.152h-17.299c-.639 0-1.158-.517-1.158-1.153v-5.193h9.809c.954 0 1.73-.776 1.73-1.729v-8.657c0-.954-.776-1.729-1.73-1.729h-9.809v-8.074c0-.638.52-1.157 1.158-1.157h10.38v7.5c0 .319.258.577.577.577h7.5v18.464zM7.763 14.642c-.192-.249-.429-.411-.713-.485-.185-.05-.581-.074-1.19-.074h-1.606v4.956h1.001v-1.869h.652c.453 0 .799-.024 1.038-.071.176-.038.349-.117.519-.235.17-.118.31-.281.421-.488.11-.207.166-.463.166-.767 0-.394-.096-.716-.287-.965zm-.857 1.364c-.075.11-.18.192-.313.243-.133.052-.397.078-.791.078h-.548v-1.406h.483c.361 0 .601.011.72.034.162.029.296.102.402.22.106.117.159.266.159.446 0 .146-.038.275-.113.385zM12.86 15.437c-.108-.317-.266-.584-.473-.803-.207-.219-.456-.371-.747-.456-.216-.063-.531-.095-.943-.095h-1.829v4.956h1.883c.37 0 .665-.035.886-.105.295-.095.53-.227.703-.396.23-.223.407-.515.531-.875.101-.295.152-.647.152-1.055 0-.464-.054-.855-.162-1.171zm-.974 2.035c-.068.222-.155.382-.262.478-.107.097-.242.166-.404.206-.124.032-.326.047-.605.047h-.747v-3.282h.45c.408 0 .682.016.821.047.187.041.341.118.463.233.122.115.216.275.284.48.068.205.101.499.101.882s-.034.686-.101.908zM17.275 14.921v-.838h-3.397v4.956h1.001v-2.106h2.069v-.838h-2.069v-1.173h2.397z" fill="#00696E"/></svg>