<svg width="24" height="24" viewBox="0 0 24 24" xmlns="http://www.w3.org/2000/svg" fill="none"><path d="M17.503 0h-11.007c-3.582 0-6.497 2.914-6.497 6.497v11.007c0 3.582 2.914 6.496 6.497 6.496h11.007c3.582 0 6.496-2.914 6.496-6.496v-11.007c0-3.582-2.914-6.497-6.497-6.497zm5.09 17.504c0 2.806-2.283 5.089-5.09 5.089h-11.007c-2.806 0-5.09-2.283-5.09-5.089v-11.007c0-2.806 2.283-5.09 5.09-5.09h11.007c2.806 0 5.089 2.283 5.089 5.09v11.007zM12 6c-3.308 0-6 2.692-6 6 0 3.309 2.692 6 6 6 3.309 0 6-2.691 6-6 0-3.308-2.691-6-6-6zm0 10.714c-2.599 0-4.714-2.114-4.714-4.714 0-2.599 2.115-4.714 4.714-4.714s4.714 2.115 4.714 4.714-2.114 4.714-4.714 4.714zM18.5 4c-.827 0-1.5.673-1.5 1.5s.673 1.5 1.5 1.5 1.5-.673 1.5-1.5-.673-1.5-1.5-1.5zm0 1.912c-.227 0-.412-.185-.412-.412 0-.227.185-.412.412-.412.227 0 .412.185.412.412 0 .227-.185.412-.412.412z" fill="#00696E"/></svg>