<svg width="30" height="30" viewBox="0 0 30 30" xmlns="http://www.w3.org/2000/svg" fill="none"><path d="M15 0c-8.284 0-15 6.716-15 15 0 8.284 6.716 15 15 15 8.284 0 15-6.716 15-15 0-8.284-6.716-15-15-15zm7.93 20.204h-2.334c-1.319 0-1.54-.751-2.627-1.836-.981-.981-1.525-.229-1.503 1.169.008.371-.176.668-.619.668-1.381 0-3.367.195-5.38-1.975-2.059-2.224-4.217-6.685-4.217-7.124 0-.26.215-.376.574-.376h2.372c.629 0 .681.311.858.71.73 1.664 2.476 5.002 2.942 3.139.268-1.07.376-3.549-.769-3.763-.65-.12.495-.815 2.153-.815.412 0 .86.044 1.317.15.841.195.845.572.833 1.123-.043 2.082-.294 3.482.255 3.836.524.339 1.901-1.878 2.63-3.589.199-.473.239-.79.804-.79h2.902c1.52 0-.199 2.185-1.513 3.89-1.059 1.374-1.003 1.4.229 2.543.876.814 1.913 1.925 1.913 2.554 0 .298-.233.488-.82.488z" fill="#fff"/></svg>