<svg width="24" height="16" viewBox="0 0 24 16" fill="none" xmlns="http://www.w3.org/2000/svg">
<path d="M23.2 7.80488C23.2 8.30394 22.9747 9.0201 22.4476 9.85306C21.9296 10.6716 21.1574 11.5428 20.1623 12.3411C18.173 13.9369 15.3457 15.2 12.0002 15.2C8.65944 15.2 5.83257 13.9114 3.84049 12.2997C2.84422 11.4937 2.07037 10.6176 1.55132 9.80235C1.02139 8.97003 0.8 8.27006 0.8 7.80488C0.8 7.34442 1.01793 6.67218 1.54301 5.88116C2.05799 5.10534 2.82784 4.27805 3.82253 3.51926C5.81061 2.00266 8.64317 0.8 12.0002 0.8C15.3621 0.8 18.1951 1.97693 20.1805 3.47794C21.1739 4.22899 21.942 5.05141 22.4558 5.83036C22.9778 6.6219 23.2 7.31024 23.2 7.80488Z" stroke="#8B8B8B" stroke-width="1.6"/>
<mask id="path-2-inside-1" fill="white">
<path d="M17 8C17 10.7614 14.7614 13 12 13C9.23858 13 7 10.7614 7 8C7 5.23858 9.23858 3 12 3C14.7614 3 17 5.23858 17 8Z"/>
</mask>
<path d="M15.4 8C15.4 9.87777 13.8778 11.4 12 11.4V14.6C15.6451 14.6 18.6 11.6451 18.6 8H15.4ZM12 11.4C10.1222 11.4 8.6 9.87777 8.6 8H5.4C5.4 11.6451 8.35492 14.6 12 14.6V11.4ZM8.6 8C8.6 6.12223 10.1222 4.6 12 4.6V1.4C8.35492 1.4 5.4 4.35492 5.4 8H8.6ZM12 4.6C13.8778 4.6 15.4 6.12223 15.4 8H18.6C18.6 4.35492 15.6451 1.4 12 1.4V4.6Z" fill="#8B8B8B" mask="url(#path-2-inside-1)"/>
</svg>
