<svg width="24" height="24" viewBox="0 0 24 24" xmlns="http://www.w3.org/2000/svg" fill="none"><path d="M19.857 15.578c-.043-.072-.309-.65-1.589-1.838-1.34-1.244-1.16-1.042.454-3.193.983-1.31 1.376-2.11 1.253-2.452-.117-.326-.84-.24-.84-.24l-2.404.014s-.178-.024-.311.055c-.129.078-.212.258-.212.258s-.381 1.014-.889 1.876c-1.071 1.819-1.5 1.915-1.675 1.802-.407-.263-.305-1.058-.305-1.622 0-1.763.267-2.498-.521-2.688-.262-.063-.454-.105-1.123-.112-.858-.009-1.585.003-1.996.204-.274.134-.485.433-.356.45.159.021.519.097.71.357.247.335.238 1.089.238 1.089s.142 2.075-.331 2.333c-.325.177-.77-.184-1.725-1.835-.489-.845-.859-1.78-.859-1.78s-.071-.174-.198-.267c-.154-.113-.37-.149-.37-.149l-2.286.014s-.343.01-.469.159c-.112.133-.009.407-.009.407s1.79 4.187 3.816 6.298c1.859 1.935 3.969 1.808 3.969 1.808h.956s.289-.032.436-.191c.136-.146.131-.42.131-.42s-.019-1.283.577-1.472c.587-.186 1.341 1.24 2.14 1.789.604.415 1.063.324 1.063.324l2.137-.03s1.118-.069.588-.948zM17.503 0h-11.007c-3.582 0-6.497 2.914-6.497 6.497v11.007c0 3.582 2.914 6.496 6.497 6.496h11.007c3.582 0 6.496-2.914 6.496-6.496v-11.007c0-3.582-2.914-6.497-6.497-6.497zm5.09 17.504c0 2.806-2.283 5.089-5.09 5.089h-11.007c-2.806 0-5.09-2.283-5.09-5.089v-11.007c0-2.806 2.283-5.09 5.09-5.09h11.007c2.806 0 5.089 2.283 5.089 5.09v11.007z" fill="#00696E"/></svg>