<svg width="30" height="30" viewBox="0 0 30 30" xmlns="http://www.w3.org/2000/svg" fill="none"><path d="M29.5 14.966c0 7.988-6.491 14.466-14.5 14.466s-14.5-6.478-14.5-14.466c0-7.988 6.491-14.466 14.5-14.466s14.5 6.478 14.5 14.466z" fill="#fff" stroke="#00696E"/><path d="M23.021 21.216l-.044.013-.044-.013-.03-.034-.007-.045c.048-.403-.417.026-.689.49-.121.217-.292.401-.499.538-.289.184-.504.115-.63-.203l-.047-.143c-.087-.432-.245-.847-.467-1.228h.455c.63-.052.915-.603.6-1.152-.139-.229-.334-.419-.566-.554l.121-.007c.692.063 1.365.204 1.979.539.213.115.409.26.579.432.249.252.247.534.015.8-.127.137-.269.261-.422.37l-.305.198z" fill="#00696E"/><path d="M19.111 17.683l.014.032-.005.034-.023.026-.033.01c-.309.006.063.311.443.467.178.068.336.178.462.32.169.197.14.367-.09.496l-.103.05c-.317.111-.614.274-.879.48l-.05-.342c-.105-.469-.551-.628-.935-.331-.159.129-.282.296-.36.485l-.018-.09c-.025-.527.011-1.048.197-1.547.066-.173.157-.335.27-.481.164-.214.378-.242.603-.095.117.081.226.175.324.278l.184.207z" fill="#ECB344"/><path d="M25.631 17.593l-.04.022-.046-.003-.037-.027-.017-.042c-.046-.403-.401.12-.56.634-.067.239-.19.459-.36.641-.239.244-.464.226-.662-.054l-.077-.129c-.183-.401-.431-.77-.734-1.09l.443-.106c.603-.193.754-.794.323-1.257-.188-.191-.421-.332-.677-.41l.116-.034c.688-.096 1.375-.11 2.05.074.234.064.457.161.663.289.3.189.36.465.196.776-.094.163-.203.315-.328.456l-.253.262zM6.667 20.836l.061.016.06-.019.041-.048.009-.062c-.072-.551.573.029.952.66.168.297.406.548.693.733.399.248.692.15.862-.287l.062-.197c.097-.601.334-1.152.618-1.689-.211 0-.418.018-.623 0-.864-.06-1.259-.808-.841-1.569.188-.315.451-.579.766-.767l-.166-.007c-.945.098-1.864.302-2.699.767-.29.161-.556.364-.787.601-.336.348-.328.735-.006 1.095.177.186.373.353.584.499.127.101.267.185.416.275zM12.652 8.419l-.03.035-.005.046.021.041.041.022c.407.094-.194.379-.752.471-.258.037-.504.132-.72.277-.3.205-.321.426-.066.653l.12.09c.376.226.711.514.989.852l.188-.421c.305-.565.952-.641 1.355-.162.164.208.269.456.304.718l.056-.11c.22-.662.36-1.333.286-2.017-.024-.236-.085-.467-.18-.685-.142-.317-.415-.412-.765-.287-.184.071-.36.16-.527.264l-.315.214z" fill="#00696E"/><path d="M11.156 20.068l-.008.023.005.024.017.018.024.006c.216-.005-.033.219-.292.34-.121.053-.228.134-.311.237-.111.144-.085.259.077.343l.074.031c.225.066.438.169.63.304l.023-.24c.058-.329.36-.449.639-.261.116.084.209.196.27.325l.009-.063c.011-.366-.053-.73-.188-1.07-.051-.118-.119-.228-.201-.326l-.088-.081-.113-.038-.119.012-.103.06-.216.204-.127.151z" fill="#ECB344"/><path d="M17.573 8.09l-.053.017-.036.042-.008.054.022.05c.311.377-.441.245-1.02-.049-.265-.143-.56-.22-.861-.224-.413 0-.586.211-.508.617l.046.18c.195.494.306 1.016.33 1.546.157-.101.304-.209.464-.293.673-.359 1.322.016 1.363.778.007.323-.066.642-.212.93l.127-.072c.66-.513 1.251-1.094 1.658-1.832.141-.256.244-.53.306-.816.09-.417-.1-.703-.508-.82-.219-.056-.444-.09-.67-.101l-.44-.006zM15.024 3.959l-.039.04-.011.055.021.052.046.032c.459.172-.259.433-.908.467-.301.008-.595.089-.858.234-.36.207-.402.475-.131.788l.128.129c.417.331.776.729 1.062 1.178.086-.165.158-.332.255-.486.404-.645 1.153-.645 1.571-.004.168.276.265.589.282.911l.075-.126c.314-.775.534-1.572.518-2.414-.005-.292-.054-.581-.144-.859-.133-.405-.438-.559-.851-.458-.218.061-.429.144-.63.247-.132.06-.255.134-.385.213zM22.581 15.613l-.027.051-.051.029-.058-.002-.048-.033c-.333-.399-.344.409-.15 1.069.096.303.118.625.064.939-.083.429-.336.567-.744.407l-.174-.083c-.475-.315-1.004-.503-1.552-.649.135-.143.277-.275.398-.424.506-.628.245-1.377-.54-1.57-.335-.072-.684-.059-1.013.037l.101-.119c.667-.584 1.39-1.082 2.239-1.36.295-.097.602-.149.912-.156.45-.009.713.242.757.69.015.24.006.48-.028.718l-.085.456zM9.877 16.834l.028.049.049.027.056-.001.047-.03c.332-.398.344.41.15 1.07-.096.303-.118.625-.064.938.083.43.336.567.744.407l.179-.086c.478-.3 1.002-.519 1.552-.649-.135-.144-.277-.275-.398-.424-.506-.628-.245-1.376.54-1.569.335-.072.684-.06 1.013.036l-.101-.118c-.667-.584-1.39-1.083-2.239-1.361-.293-.094-.599-.146-.907-.153-.45-.008-.713.242-.757.69-.016.24-.006.48.028.718l.079.456zM9.667 5.132l.06.009.045.04.015.058-.019.057c-.27.441.498.197 1.065-.194.258-.188.557-.311.873-.359.434-.057.645.139.621.576l-.023.191c-.15.549-.163 1.108-.129 1.674-.18-.083-.349-.18-.529-.243-.759-.282-1.389.202-1.322 1.009.037.34.159.666.354.947l-.144-.057c-.766-.449-1.468-.975-2-1.692-.185-.249-.332-.523-.437-.814-.151-.426.005-.752.418-.933.222-.09.453-.157.689-.2l.462-.068zM26.027 12.802l-.023.047-.045.026-.052-.003-.042-.032c-.291-.348-.3.359-.131.935.084.265.104.546.056.82-.073.376-.294.496-.65.359l-.153-.073c-.418-.263-.876-.455-1.357-.567l.347-.372c.443-.549.214-1.204-.475-1.372-.293-.063-.597-.052-.885.032l.09-.103c.583-.512 1.215-.947 1.958-1.189.257-.085.525-.132.795-.14.396-.007.624.212.661.604.014.21.006.42-.024.628l-.07.399zM21.443 10.671l-.001.046-.023.04-.04.023h-.046c-.401-.139-.068.431.345.808.195.171.346.387.44.628.122.335 0 .539-.35.597l-.156.014c-.461-.01-.921.057-1.36.197l.1-.464c.09-.652-.408-1.066-1.041-.871-.265.089-.504.244-.694.449l.021-.125c.22-.688.516-1.341.995-1.891.166-.191.358-.356.572-.492.314-.196.602-.129.82.167.111.161.206.332.282.512l.136.363zM20.071 5.266l.016.043-.008.045-.029.036-.043.017c-.424.013.09.426.613.635.244.09.462.239.636.432.235.269.196.501-.112.682l-.141.069c-.434.155-.839.381-1.2.668l-.073-.469c-.149-.641-.763-.85-1.285-.442-.215.179-.383.408-.487.668l-.025-.124c-.041-.718 0-1.436.253-2.121.087-.238.208-.461.36-.663.223-.294.515-.336.825-.137.163.11.313.237.45.379l.251.283zM24.825 8.237l-.019.057-.047.038-.06.007-.054-.027c-.399-.345-.277.467.025 1.097.147.288.222.607.22.931-.013.449-.244.628-.679.53l-.189-.054c-.528-.239-1.089-.34-1.663-.396.112-.166.233-.321.329-.491.404-.718.018-1.42-.804-1.485-.348-.017-.695.053-1.009.204l.081-.135c.572-.696 1.215-1.315 2.021-1.732.279-.146.579-.249.889-.307.45-.083.755.125.872.568.054.236.084.476.09.718.012.158.004.312-.002.477zM8.686 11.973l.013.058.042.041.058.012.055-.021c.417-.31.237.478-.105 1.077-.165.272-.261.58-.282.898-.02.437.193.628.63.57l.189-.04c.54-.196 1.094-.255 1.662-.269-.098-.171-.206-.333-.288-.506-.345-.729.09-1.395.9-1.398.343.007.678.1.976.269l-.069-.138c-.511-.723-1.098-1.377-1.859-1.845-.264-.163-.55-.286-.849-.365-.439-.114-.751.068-.9.494-.071.229-.118.464-.141.702-.022.149-.027.302-.031.463zM4.836 8.944l.013.064.045.048.064.016.063-.02c.492-.32.237.556-.191 1.207-.205.296-.335.637-.381.995-.052.492.175.724.67.685l.217-.032c.618-.184 1.252-.214 1.894-.19-.099-.199-.21-.389-.29-.59-.34-.847.192-1.57 1.107-1.522.382.022.72.159 1.08.373l-.069-.16c-.524-.85-1.14-1.627-1.968-2.208-.287-.201-.602-.36-.935-.47-.488-.158-.853.027-1.047.498-.096.253-.165.515-.207.783-.03.173-.052.348-.065.523zM4.139 15.462l.046.044.063.012.06-.023.038-.051c.207-.529.499.306.528 1.058.002.349.09.693.255 1.001.235.417.546.473.914.165l.152-.146c.383-.492.867-.87 1.385-1.21-.19-.102-.383-.189-.56-.303-.744-.478-.731-1.346.02-1.817.312-.197.659-.28 1.063-.312l-.145-.09c-.9-.376-1.819-.644-2.797-.638-.339.002-.677.054-1.001.154-.473.147-.657.497-.545.977.067.253.159.499.277.733.067.148.157.293.247.446zM15.758 12.151l.064.045.03.072-.014.076-.053.057c-.585.37.483.524 1.39.383.418-.075.848-.048 1.254.078.554.179.694.539.41 1.051l-.14.215c-.499.572-.839 1.236-1.126 1.934-.167-.204-.317-.414-.494-.598-.745-.776-1.78-.56-2.173.449-.163.419-.18.851-.126 1.341l-.138-.152c-.659-.984-1.195-2.024-1.417-3.191-.077-.405-.093-.819-.05-1.229.067-.599.444-.898 1.044-.878.319.021.635.074.943.16.199.048.391.114.596.185z" fill="#00696E"/><path d="M20.664 19.639s-.858.744-1.418 1.153c-.666.485-1.241 1.085-1.698 1.77-.531.79-.63 1.331-.481 2.139.131.698.787 1.484.873 1.602-.261-.206-1.55-.949-1.923-2.563-.263-1.135-.221-2.169-.11-3.212.116-1.05.292-2.093.527-3.123.173-.675.379-1.277.523-1.504-.044.327-.069.657-.075.987-.015.444-.005.888.032 1.331.052.709.098 1.362.411 1.627.27.227.746.298 1.268.26.523-.038 2.07-.47 2.07-.47zM10.133 21.577s.609.528 1.006.819c.472.345.88.77 1.204 1.257.376.56.45.943.341 1.516-.09.495-.558 1.053-.619 1.136.184-.145 1.099-.672 1.364-1.817.186-.808.157-1.538.077-2.277-.081-.745-.205-1.485-.371-2.216-.123-.478-.27-.906-.372-1.066.032.231.05.463.054.697.01.315.003.63-.022.944-.037.503-.069.966-.291 1.153-.191.161-.529.211-.9.185-.371-.026-1.471-.33-1.471-.33z" fill="#ECB344"/></svg>