<svg width="157" height="55" viewBox="0 0 157 55" xmlns="http://www.w3.org/2000/svg" fill="none"><g clip-path="url(#a)"><path d="M42.413 41.724c-.107.057-.268 0-.268-.172.107-.918-.91.057-1.499 1.148-.268.516-.642.975-1.07 1.262-.642.459-1.124.287-1.392-.459-.053-.115-.107-.229-.107-.344-.16-1.033-.535-1.951-1.017-2.869h1.017c1.392-.115 1.98-1.434 1.285-2.697-.268-.516-.696-.918-1.231-1.32h.268c1.498.172 2.997.459 4.335 1.262.482.287.91.631 1.285 1.033.535.574.535 1.262.053 1.894-.268.344-.589.631-.91.861-.268.115-.482.23-.749.402z" fill="#004753"/><path d="M33.903 33.405c.053.115 0 .229-.107.229-.696 0 .161.746.963 1.09.375.172.749.402 1.017.746.375.459.321.861-.214 1.148-.053.057-.16.115-.214.115-.696.23-1.338.631-1.927 1.148l-.107-.803c-.214-1.09-1.231-1.492-2.034-.803-.375.287-.589.689-.803 1.148l-.053-.23c-.054-1.262 0-2.467.428-3.615.161-.402.321-.803.589-1.148.375-.516.803-.574 1.338-.23.268.172.482.402.696.631.161.229.268.402.428.574z" fill="#ECB344"/><path d="M48.139 33.232c-.107.115-.268.057-.321-.115-.107-.918-.856.287-1.231 1.492-.161.574-.428 1.09-.803 1.492-.535.574-1.017.516-1.445-.115l-.16-.287c-.375-.975-.963-1.779-1.606-2.582.321-.057.642-.115.963-.23 1.338-.459 1.659-1.836.696-2.926-.375-.459-.856-.746-1.499-.975.107-.057.161-.057.268-.057 1.499-.229 2.997-.287 4.496.172.482.172 1.017.402 1.445.689.642.459.803 1.09.428 1.836-.214.402-.428.746-.696 1.09-.161.115-.375.287-.535.516zM6.715 40.806c.161.115.375-.057.375-.287-.161-1.32 1.231.057 2.087 1.549.375.688.856 1.262 1.499 1.721.856.574 1.498.344 1.873-.688l.16-.459c.214-1.434.749-2.697 1.338-3.959-.482 0-.91.057-1.338 0-1.873-.115-2.73-1.893-1.82-3.672.375-.746.963-1.262 1.659-1.779h-.375c-2.087.23-4.068.689-5.887 1.779-.642.402-1.231.861-1.713 1.434-.749.803-.696 1.721 0 2.582.375.459.803.803 1.284 1.148.214.23.535.459.856.631zM19.774 11.716c-.107.115-.107.287.054.344.91.229-.428.861-1.659 1.09-.589.115-1.124.287-1.606.631-.642.459-.696.975-.107 1.549l.268.229c.856.516 1.552 1.205 2.194 2.008.161-.344.268-.689.428-.975.642-1.32 2.087-1.492 2.944-.402.375.459.535 1.033.642 1.664l.107-.229c.482-1.549.803-3.156.642-4.705-.054-.574-.161-1.09-.375-1.607-.321-.746-.91-.975-1.659-.688-.428.172-.803.402-1.177.631-.214.057-.482.229-.696.459z" fill="#004753"/><path d="M16.509 39.028c-.053.057 0 .172.053.172.482 0-.053.516-.642.803-.268.115-.482.287-.696.574-.268.344-.16.631.161.803l.161.057c.482.172.963.402 1.392.688 0-.172 0-.402.053-.574.107-.746.803-1.09 1.392-.631.268.172.428.459.589.746v-.172c0-.861-.107-1.721-.428-2.525-.107-.287-.268-.516-.428-.746-.268-.344-.589-.344-.91-.115-.161.115-.321.287-.482.459-.053.23-.107.344-.214.459z" fill="#ECB344"/><path d="M30.531 10.913c-.16 0-.268.229-.16.402.696.861-.963.574-2.248-.115-.589-.344-1.231-.516-1.873-.516-.91 0-1.285.516-1.124 1.434 0 .115.053.287.107.402.482 1.148.642 2.41.696 3.615.321-.229.642-.516 1.017-.689 1.445-.861 2.89.057 2.997 1.836.053.746-.16 1.434-.482 2.18.107-.057.214-.115.268-.172 1.445-1.205 2.73-2.582 3.639-4.303.321-.574.535-1.262.642-1.893.214-.975-.214-1.664-1.124-1.951-.482-.172-.963-.172-1.445-.229h-.91zM24.965 1.216c-.161.115-.107.344.053.402 1.017.402-.589 1.033-1.98 1.09-.642.057-1.285.172-1.873.574-.803.459-.856 1.09-.268 1.836.107.115.161.23.268.287.963.746 1.659 1.721 2.301 2.754.214-.402.321-.803.535-1.148.856-1.492 2.515-1.492 3.425 0 .375.631.535 1.32.642 2.123.053-.115.107-.23.161-.287.696-1.836 1.177-3.672 1.124-5.68 0-.689-.107-1.377-.321-2.008-.268-.975-.963-1.32-1.873-1.09-.482.115-.91.344-1.392.574-.268.23-.535.402-.803.574zM41.449 28.585c-.053.229-.268.287-.428.115-.749-.918-.749.976-.321 2.525.214.689.268 1.434.161 2.18-.161 1.033-.749 1.32-1.606.975l-.375-.172c-1.017-.746-2.194-1.205-3.372-1.549.321-.344.589-.631.856-.975 1.124-1.492.535-3.213-1.178-3.672-.696-.172-1.445-.115-2.194.057l.214-.287c1.445-1.377 3.051-2.525 4.87-3.213.642-.23 1.338-.344 1.98-.344.963 0 1.552.574 1.659 1.607.053.574 0 1.148-.053 1.664-.053.344-.107.689-.214 1.09zM13.726 31.454c.053.229.268.287.428.115.749-.918.749.975.321 2.525-.214.689-.268 1.434-.161 2.18.161 1.033.749 1.32 1.606.975l.375-.172c1.017-.746 2.194-1.205 3.372-1.549-.321-.344-.589-.631-.856-.976-1.124-1.492-.535-3.213 1.177-3.672.696-.172 1.445-.115 2.194.057l-.214-.287c-1.445-1.377-3.051-2.525-4.87-3.213-.642-.23-1.338-.344-1.98-.344-.963 0-1.552.574-1.659 1.607-.053.574 0 1.148.053 1.664.054.344.107.689.214 1.09zM13.244 3.97c.214 0 .321.172.214.402-.589 1.033 1.07.459 2.301-.459.589-.402 1.178-.746 1.927-.861.963-.115 1.392.344 1.338 1.377 0 .172 0 .287-.054.459-.321 1.262-.375 2.582-.268 3.902-.375-.172-.749-.402-1.177-.574-1.659-.689-3.051.459-2.89 2.352.053.803.321 1.492.749 2.238-.161-.057-.214-.115-.321-.115-1.659-1.033-3.211-2.295-4.389-3.959-.375-.574-.749-1.262-.963-1.893-.321-.975 0-1.779.91-2.18.589-.287 1.124-.402 1.606-.516l1.017-.172zM48.995 21.986c-.053.172-.268.23-.375.115-.642-.803-.642.861-.268 2.18.161.631.214 1.262.107 1.951-.161.861-.642 1.148-1.445.861l-.321-.172c-.91-.631-1.927-1.033-2.944-1.32.268-.287.535-.574.749-.861.963-1.262.482-2.812-1.017-3.213-.642-.172-1.231-.115-1.927.057.107-.115.107-.172.214-.23 1.284-1.205 2.676-2.238 4.282-2.811.535-.172 1.177-.287 1.766-.344.856 0 1.338.516 1.445 1.434.053.459 0 .975-.053 1.492-.107.23-.161.516-.214.861zM38.987 16.995c.053.172-.107.287-.268.23-.856-.344-.161 1.033.749 1.893.428.402.749.918.963 1.492.268.803 0 1.262-.749 1.377l-.321.057c-1.017-.057-1.98.172-2.944.459l.214-1.09c.214-1.549-.91-2.525-2.248-2.066-.589.172-1.07.574-1.499 1.033 0-.115 0-.229.054-.287.482-1.607 1.124-3.156 2.194-4.418.375-.459.803-.861 1.231-1.148.696-.459 1.338-.287 1.766.402.268.344.428.803.642 1.205 0 .287.107.574.214.861zM35.99 4.314c.107.115 0 .344-.161.344-.91.057.214.975 1.338 1.492.535.23 1.017.516 1.391 1.033.535.631.428 1.148-.268 1.607l-.321.172c-.963.344-1.82.918-2.623 1.549-.053-.402-.107-.746-.16-1.09-.321-1.492-1.659-2.008-2.783-1.033-.482.402-.803.918-1.07 1.549-.053-.115-.053-.23-.053-.287-.107-1.721 0-3.385.535-4.992.214-.574.482-1.148.803-1.607.535-.689 1.124-.803 1.82-.287.375.23.696.574.963.861.214.23.375.402.589.689zM46.373 11.257c0 .23-.214.287-.375.172-.856-.803-.589 1.09.053 2.582.321.689.482 1.434.482 2.18-.053 1.033-.535 1.492-1.499 1.262l-.428-.115c-1.178-.574-2.355-.803-3.639-.918.268-.402.535-.746.696-1.148.856-1.664.053-3.328-1.766-3.5-.749-.057-1.445.115-2.194.459.107-.172.107-.23.161-.344 1.231-1.607 2.676-3.098 4.389-4.074.589-.344 1.285-.574 1.927-.746.963-.172 1.659.287 1.927 1.32.161.574.161 1.148.214 1.721.054.402.053.746.053 1.148zM11.103 20.036c0 .23.214.344.375.23.91-.746.535 1.148-.214 2.525-.321.631-.589 1.32-.642 2.123-.054 1.033.428 1.492 1.391 1.32.161 0 .268-.057.428-.115 1.177-.459 2.408-.574 3.639-.631l-.642-1.205c-.749-1.721.161-3.271 1.98-3.271.749 0 1.392.23 2.141.631-.053-.172-.107-.229-.16-.344-1.124-1.721-2.409-3.213-4.068-4.303-.589-.402-1.231-.689-1.873-.861-.963-.287-1.659.172-1.98 1.148-.16.516-.268 1.09-.321 1.664l-.053 1.09zM2.701 12.921c0 .229.214.402.428.229 1.07-.746.535 1.32-.428 2.812-.428.689-.749 1.492-.856 2.352-.107 1.148.375 1.721 1.445 1.607.161 0 .321 0 .482-.057 1.338-.459 2.73-.516 4.121-.459-.214-.459-.482-.918-.642-1.377-.749-2.008.428-3.672 2.408-3.557.856.057 1.606.344 2.355.861-.053-.172-.107-.287-.161-.402-1.177-2.008-2.515-3.844-4.282-5.164-.642-.459-1.338-.861-2.034-1.09-1.07-.344-1.873.057-2.301 1.148-.214.574-.321 1.205-.428 1.836l-.107 1.262zM1.202 28.241c.107.172.375.115.428-.057.428-1.262 1.07.746 1.177 2.467.054.803.161 1.606.589 2.352.535.975 1.177 1.09 1.98.402l.321-.344c.856-1.147 1.873-2.066 3.051-2.811-.428-.229-.856-.459-1.231-.688-1.606-1.148-1.606-3.156.054-4.246.696-.459 1.445-.631 2.301-.746l-.321-.23c-1.98-.861-3.961-1.492-6.101-1.492-.749 0-1.499.115-2.194.344-1.017.344-1.445 1.148-1.177 2.295.107.574.375 1.148.589 1.721.107.287.321.631.535 1.033zM26.571 20.437c.268.115.268.459.053.574-1.284.861 1.07 1.205 3.051.918.91-.172 1.82-.115 2.73.172 1.231.459 1.499 1.262.91 2.467-.107.172-.16.344-.321.516-1.07 1.32-1.82 2.926-2.462 4.533-.375-.459-.696-.976-1.07-1.377-1.606-1.836-3.907-1.32-4.763 1.033-.375.975-.375 2.008-.268 3.156l-.321-.344c-1.445-2.295-2.622-4.762-3.104-7.459-.16-.918-.214-1.951-.107-2.869.16-1.377.963-2.123 2.301-2.066.696 0 1.392.172 2.034.402.482 0 .856.172 1.338.344z" fill="#004753"/><path d="M37.275 37.995s-1.873 1.721-3.104 2.697c-1.231.975-2.515 2.295-3.693 4.131-1.177 1.836-1.391 3.098-1.07 4.992.268 1.664 1.713 3.5 1.927 3.787-.589-.459-3.372-2.238-4.175-6.025-.589-2.639-.482-5.107-.214-7.516.268-2.467.803-5.795 1.178-7.344.375-1.607.803-2.984 1.124-3.5 0 0-.16.975-.16 2.295 0 1.262 0 1.894.053 3.098.107 1.664.214 3.213.91 3.844.589.516 1.606.688 2.783.631 1.07-.057 4.442-1.09 4.442-1.09zM14.261 42.585s1.338 1.262 2.194 1.894c.856.688 1.82 1.606 2.622 2.926.803 1.32.963 2.238.749 3.557-.214 1.147-1.231 2.467-1.338 2.639.428-.344 2.408-1.607 2.997-4.246.428-1.893.321-3.615.161-5.336-.161-1.721-.535-4.074-.803-5.221-.268-1.148-.589-2.123-.803-2.525 0 0 .107.689.107 1.607s0 1.377-.053 2.238c-.107 1.205-.161 2.295-.642 2.697-.428.402-1.177.516-1.98.459-.803-.057-3.211-.689-3.211-.689z" fill="#ECB344"/><path d="M42.413 53.372h-34.253c-.161 0-.321.172-.321.344v.172c0 .172.161.344.321.344h34.253c.161 0 .321-.172.321-.344v-.172c-.053-.172-.16-.344-.321-.344zM55.258 15.044h1.124v.516h-.107l-1.017-.115v-.402zm0 5.164l1.017-.115h.214l1.07.115v.402h-2.248v-.402h-.053zm.642-2.18v-2.9259999999999997h1.017v5.507999999999999h-1.017v-2.582zm.482-2.984h2.944v.459h-2.944v-.459zm1.82 5.164l1.017-.115h.161l1.017.115v.402h-2.248v-.402h.053zm.642-2.18v-2.9259999999999997h1.017v5.507999999999999h-1.017v-2.582zm.482-2.984h1.124v.402l-1.017.115h-.107v-.516zM61.627 15.446v-.402h1.124v.516h-.107l-1.017-.115zm1.124 4.647v.516h-1.124v-.402l1.017-.115h.107zm-.482-2.467v-2.582h1.017v5.566h-1.017v-2.984zm2.462-2.582l.428.459h-2.408v-.459h2.676l.053 1.492h-.535l-.214-1.492zm-.321 2.926h-1.713v-.459h1.713v.459zm1.231 1.148l-.053 1.492h-2.837v-.459h2.569l-.428.459.214-1.492h.535zm-1.445-1.492l.107-.861h.375v1.893h-.375l-.107-.861v-.172zM66.711 15.446v-.402h1.124v.516h-.107l-1.017-.115zm1.284 4.647l1.017.115v.402h-2.355v-.402l1.017-.115h.321zm-.642-2.467v-2.582h1.017v5.5649999999999995h-1.017v-2.984zm1.285.803h-.803v-.402h.856c.803 0 1.124-.516 1.124-1.32 0-.803-.375-1.205-1.177-1.205h-.856v-.459h.91c1.445 0 2.034.689 2.034 1.664.107.918-.482 1.721-2.087 1.721zM71.795 15.446v-.402h1.124v.516h-.107l-1.017-.115zm1.177 4.647v.516h-1.124v-.402l1.017-.115h.107zm-.482-2.41v-2.639h1.017v5.566h-1.017v-2.9259999999999997zm.482-.172h.803c.803 0 1.124-.344 1.124-1.033s-.321-.975-1.017-.975h-.91v-.459h1.177c1.177 0 1.713.574 1.713 1.32 0 .631-.375 1.205-1.499 1.32v-.057c1.284.115 1.766.631 1.766 1.434 0 .746-.535 1.549-2.194 1.549h-.963v-.459h.856c.856 0 1.284-.402 1.284-1.09 0-.746-.428-1.148-1.338-1.148h-.803v-.402zM77.255 15.044h2.301v.402l-1.07.115h-.214l-1.017-.115v-.402zm0 5.164l1.017-.115h.107v.516h-1.124v-.402zm.642-2.18v-2.9259999999999997h1.017v5.566h-1.017v-2.639zm.482 2.123h.803c.696 0 1.124-.402 1.124-1.205 0-.861-.321-1.262-1.124-1.262-.321 0-.589 0-.856.057v-.459c.375-.057.749-.057 1.124-.057 1.231 0 1.82.689 1.82 1.607s-.482 1.721-2.034 1.721h-.91v-.402h.053zm3.104-5.107h2.301v.402l-1.07.115h-.214l-1.017-.115v-.402zm0 5.164l1.017-.115h.214l1.07.115v.402h-2.301v-.402zm.642-2.18v-2.9259999999999997h1.017v5.507999999999999h-1.017v-2.582zM84.908 15.044h2.248v.402l-1.07.115h-.214l-1.017-.115v-.402h.053zm0 5.164l1.017-.115h.214l1.07.115v.402h-2.248v-.402h-.053zm.642-2.18v-2.9259999999999997h1.017v2.582l-.053 2.984h-.963v-2.639zm.375 1.836l3.104-4.475.214.402-3.104 4.476-.214-.402zm.321-6.484c.053-.172.161-.287.375-.287s.428.172.428.631c0 .229 0 .402-.053.631l-.214-.459c.161.229.589.344.856.344.268 0 .696-.115.856-.344l-.214.459c-.053-.229-.053-.344-.053-.631 0-.459.214-.631.428-.631.161 0 .268.115.375.287 0 .746-.589 1.205-1.338 1.205-.856.057-1.445-.459-1.445-1.205zm1.766 1.664h2.248v.402l-1.017.115h-.161l-1.017-.115v-.402h-.053zm0 5.164l1.017-.115h.16l1.017.115v.402h-2.248v-.402h.054zm.696-2.295l.053-2.869h.963v5.507999999999999h-1.017v-2.639zM59.165 28.011v.459l-.482.115.214-1.262h.535l-.053 1.262c-.428.287-.963.402-1.552.402-1.499 0-2.569-1.09-2.569-2.926s1.177-2.926 2.622-2.926c.482 0 1.017.115 1.499.402v1.205h-.535l-.214-1.262.482.115v.459c-.375-.402-.749-.574-1.124-.574-.91 0-1.659.803-1.659 2.467 0 1.664.696 2.467 1.659 2.467.375.057.803-.057 1.177-.402zM60.342 28.413l.749-.115h.16l.749.115v.402h-1.659v-.402zm2.194-5.221h.642l1.713 5.623h-1.017l-1.392-4.762.214-.229-1.499 4.992h-.428l1.766-5.623zm-.856 3.443h2.034l.16.459h-2.301l.107-.459zm1.392 1.779l.91-.115h.321l.963.115v.402h-2.194v-.402zM66.176 23.65v-.402h2.248v.402l-1.07.115h-.214l-.963-.115zm1.231 4.648l1.07.115v.402h-2.248v-.402l1.017-.115h.161zm-.589-2.467v-2.582h1.017v5.509h-1.017v-2.9259999999999997zm.535.344v-.459h3.051v.459h-3.051zm1.873-2.525v-.402h2.248v.402l-1.017.115h-.161l-1.07-.115zm1.231 4.648l1.017.115v.402h-2.248v-.402l1.017-.115h.214zm-.589-2.467v-2.582h1.017v5.507999999999999h-1.017v-2.927zM72.652 23.249h2.248v.402l-1.07.115h-.214l-1.017-.115v-.402h.054zm0 5.164l1.017-.115h.214l1.07.115v.402h-2.248v-.402h-.053zm.642-2.238v-2.9259999999999997h1.017v5.566h-1.017v-2.639zm2.141.688c-.107-.459-.375-.631-.856-.631h-.803v-.402h.696c.482 0 .696-.115 1.017-1.09.375-1.205.696-1.549 1.124-1.607.321 0 .535.229.535.574 0 .287-.214.574-.642.574-.268 0-.482-.057-.642-.115l.482-.287c-.214.344-.375.574-.535 1.148-.321.861-.589 1.148-1.177 1.205l-.053-.172c1.07.057 1.552.402 1.766 1.262l.375 1.32-.428-.229 1.07.115v.402c-.214.057-.482.115-.749.115-.535 0-.856-.115-.963-.689l-.214-1.492zM78.486 23.708l.428-.459-.214 1.549h-.535l.054-1.549h4.282l.053 1.549h-.535l-.214-1.549.428.459h-3.746zm1.98 4.59l1.124.115v.402h-2.409v-.402l1.07-.115h.214zm-.589-2.467v-2.582h1.017v5.507999999999999h-1.017v-2.9259999999999997zM83.57 26.347h1.873v.688h-1.873v-.688zM86.621 23.249h1.124v.516h-.107l-1.017-.115v-.402zm0 5.164l1.017-.115h.214l1.07.115v.402h-2.248v-.402h-.053zm.642-2.238v-2.9259999999999997h1.017v5.507999999999999h-1.07c.054-.803.054-1.664.054-2.582zm.482-2.926h2.944v.459h-2.944v-.459zm1.82 5.164l1.017-.115h.161l1.017.115v.402h-2.248v-.402h.053zm.642-2.238v-2.9259999999999997h1.017v5.507999999999999h-1.017v-2.582zm.482-2.926h1.124v.402l-1.017.115h-.107v-.516zM92.99 23.65v-.402h1.124v.516h-.107l-1.017-.115zm1.124 4.648v.516h-1.124v-.402l1.017-.115h.107zm-.482-2.467v-2.582h1.017v5.566h-1.017v-2.984zm2.462-2.582l.428.459h-2.408v-.459h2.676l.053 1.492h-.535l-.214-1.492zm-.321 2.926h-1.713v-.459h1.713v.459zm1.231 1.148l-.054 1.492h-2.837v-.459h2.569l-.428.459.214-1.492h.535zm-1.445-1.492l.107-.861h.375v1.893h-.375l-.107-.861v-.172zM98.235 23.708l.428-.459-.214 1.492h-.535l.053-1.549h4.282l.053 1.549h-.535l-.214-1.549.428.459h-3.746v.057zm1.98 4.59l1.124.115v.402h-2.409v-.402l1.071-.115h.214zm-.589-2.467v-2.582h1.017v5.507999999999999h-1.017v-2.9259999999999997zM103.319 23.65v-.402h1.124v.516h-.107l-1.017-.115zm1.124 4.648v.516h-1.124v-.402l1.017-.115h.107zm-.482-2.467v-2.582h1.017v5.566h-1.017v-2.984zm2.462-2.582l.428.459h-2.408v-.459h2.676l.053 1.492h-.535l-.214-1.492zm-.268 2.926h-1.712v-.459h1.712v.459zm1.178 1.148l-.054 1.492h-2.836v-.459h2.569l-.428.459.214-1.492h.535zm-1.445-1.492l.107-.861h.375v1.893h-.375l-.107-.861v-.172zM108.403 23.65v-.402h1.124v.516h-.107l-1.017-.115zm1.338 4.648l1.017.115v.402h-2.355v-.402l1.017-.115h.321zm-.642-2.467v-2.582h1.017v5.5649999999999995h-1.017v-2.984zm1.285.803h-.803v-.402h.856c.803 0 1.124-.516 1.124-1.32 0-.803-.375-1.205-1.177-1.205h-.857v-.459h.91c1.445 0 2.034.689 2.034 1.664.053.918-.535 1.721-2.087 1.721zM113.542 23.249h1.123v.516h-.107l-1.016-.115v-.402zm0 5.164l1.016-.115h.107v.516h-1.123v-.402zm.642-2.238v-2.9829999999999997h1.017v5.566h-1.017v-2.582zm.481-2.926h2.623l.053 1.549h-.535l-.267-1.549.481.459h-2.355v-.459zm0 5.107h.857c.803 0 1.231-.402 1.231-1.205 0-.746-.321-1.148-1.178-1.148-.321 0-.642 0-.91.057v-.459c.375-.057.803-.057 1.178-.057 1.338 0 1.927.746 1.927 1.607 0 .803-.429 1.664-2.141 1.664h-.91v-.459h-.054zM118.572 23.249h2.195v.402l-.964.115h-.267l-.964-.115v-.402zm.321 0h1.071l1.338 3.443-.482 1.09-1.927-4.533zm.857 4.59c.267 0 .481.172.803.574l-.429.287-.053-.172c.374-.287.642-.803.91-1.549l1.338-3.73h.481l-1.712 4.418c-.321.803-.643 1.32-1.231 1.32-.375 0-.642-.172-.642-.746.107-.23.267-.402.535-.402zm1.873-4.59h1.606v.402l-.696.115h-.161l-.696-.115v-.402h-.053zM124.139 23.65v-.402h1.124v.516h-.054l-1.07-.115zm1.284 4.648l1.017.115v.402h-2.301v-.402l1.017-.115h.267zm-.642-2.467v-2.582h1.017v5.5649999999999995h-1.017v-2.984zm1.284.803h-.802v-.402h.856c.803 0 1.124-.516 1.124-1.32 0-.803-.375-1.205-1.178-1.205h-.856v-.459h.91c1.445 0 2.034.689 2.034 1.664.107.918-.482 1.721-2.088 1.721zM129.277 23.249h1.124v.516h-.107l-1.017-.115v-.402zm0 5.164l1.017-.115h.267l1.017.115v.402h-2.355v-.402h.054zm.642-2.123v-3.041h1.017v5.509h-1.017v-2.467zm.482-3.041h2.622l.054 1.664h-.536l-.267-1.664.481.459h-2.354v-.459zM138.054 28.011v.459l-.482.115.214-1.262h.536l-.054 1.262c-.428.287-.963.402-1.552.402-1.499 0-2.569-1.09-2.569-2.926s1.177-2.926 2.622-2.926c.482 0 1.017.115 1.499.402l.054 1.262h-.536l-.214-1.262.482.115v.459c-.375-.402-.749-.574-1.124-.574-.91 0-1.659.803-1.659 2.467 0 1.664.696 2.467 1.659 2.467.321 0 .749-.115 1.124-.459zM139.446 23.249h2.247v.402l-1.07.115h-.214l-1.017-.115v-.402h.054zm0 5.164l1.017-.115h.214l1.07.115v.402h-2.248v-.402h-.053zm.642-2.238v-2.9259999999999997h1.017v5.566h-1.017v-2.639zm2.087.688c-.107-.459-.374-.631-.856-.631h-.803v-.402h.696c.481 0 .696-.115 1.017-1.09.374-1.205.695-1.549 1.124-1.607.321 0 .535.229.535.574 0 .287-.214.574-.642.574-.268 0-.482-.057-.643-.115l.482-.287c-.214.344-.375.574-.535 1.148-.321.861-.589 1.148-1.178 1.205l-.053-.172c1.07.057 1.552.402 1.766 1.262l.375 1.32-.429-.229 1.071.115v.402c-.214.057-.482.115-.749.115-.536 0-.857-.115-.964-.689l-.214-1.492zM145.118 23.249h2.248v.402l-1.07.115h-.214l-1.017-.115v-.402h.053zm0 5.164l1.017-.115h.214l1.071.115v.402h-2.248v-.402h-.054zm.643-2.238v-2.9259999999999997h1.017v2.582l-.054 2.984h-.963v-2.639zm.374 1.893l3.105-4.476.214.402-3.105 4.475-.214-.402zm2.088-4.82h2.248v.402l-1.017.115h-.161l-1.017-.115v-.402h-.053zm0 5.164l1.017-.115h.16l1.017.115v.402h-2.194v-.402zm.642-2.295l.053-2.869h.964v5.507999999999999h-1.017v-2.639zM151.648 23.249h2.248v.402l-1.07.115h-.214l-1.017-.115v-.402h.053zm0 5.164l1.017-.115h.214l1.071.115v.402h-2.248v-.402h-.054zm.643-2.238v-2.9259999999999997h1.016v2.582l-.053 2.984h-.963v-2.639zm.374 1.893l3.104-4.476.214.402-3.104 4.475-.214-.402zm.321-6.484c.054-.172.161-.287.375-.287s.428.172.428.631c0 .23 0 .402-.053.631l-.215-.459c.161.23.589.344.857.344.267 0 .696-.115.856-.344l-.214.459c-.053-.229-.053-.344-.053-.631 0-.459.214-.631.428-.631.16 0 .267.115.374.287 0 .746-.588 1.205-1.338 1.205-.856 0-1.445-.459-1.445-1.205zm1.766 1.664h2.248v.402l-1.017.115h-.16l-1.017-.115v-.402h-.054zm0 5.164l1.017-.115h.161l1.017.115v.402h-2.248v-.402h.053zm.643-2.295l.053-2.869h.964v5.507999999999999h-1.017v-2.639zM56.649 36.675c.749 0 1.177-.402 1.177-1.262 0-.688-.321-1.09-1.124-1.09h-.321v-.459h.268c.749 0 1.124-.402 1.124-1.033 0-.746-.428-1.09-1.07-1.09-.321 0-.589.057-.91.229v-.287l.428-.172-.214 1.32h-.589l-.053-1.205c.375-.23.91-.344 1.552-.344 1.07 0 1.766.574 1.766 1.434 0 .631-.428 1.205-1.498 1.377v-.115c1.177.115 1.659.688 1.659 1.492 0 .975-.749 1.664-2.034 1.664-1.017 0-1.659-.459-1.713-1.32.107-.23.268-.344.428-.344.268 0 .428.172.535.689l.107.746-.375-.402c.375.172.642.172.856.172zM59.807 31.454h2.194v.402l-.963.115h-.268l-.963-.115v-.402zm.268 0h1.07l1.338 3.443-.482 1.09-1.927-4.533zm.91 4.59c.268 0 .482.172.803.574l-.428.287-.053-.172c.375-.287.642-.803.91-1.549l1.338-3.73h.482l-1.713 4.418c-.321.803-.642 1.32-1.231 1.32-.375 0-.642-.172-.642-.746.107-.23.268-.402.535-.402zm1.82-4.59h1.606v.402l-.696.115h-.16l-.696-.115v-.402h-.053zM65.373 31.454h1.124v.516h-.107l-1.017-.115v-.402zm0 5.164l1.017-.115h.107v.516h-1.124v-.402zm.642-2.238v-2.9829999999999997h1.017v5.566h-1.017v-2.582zm.482-2.926h2.623l.053 1.549h-.535l-.268-1.549.482.459h-2.355v-.459zm0 5.107h.856c.803 0 1.231-.402 1.231-1.205 0-.746-.321-1.148-1.177-1.148-.321 0-.642 0-.91.057v-.459c.375-.057.803-.057 1.177-.057 1.338 0 1.927.746 1.927 1.607 0 .803-.428 1.664-2.141 1.664h-.91v-.459h-.053zM75.381 34.208c0 1.893-1.124 2.926-2.355 2.926-1.231 0-2.355-.975-2.355-2.926 0-1.893 1.177-2.926 2.355-2.926 1.177 0 2.355.975 2.355 2.926zm-2.355 2.467c.91 0 1.284-1.148 1.284-2.467 0-1.32-.375-2.467-1.284-2.467-.91 0-1.285 1.148-1.285 2.467-.053 1.32.321 2.467 1.285 2.467zM76.666 31.855l.428-.459-.214 1.549h-.535l.054-1.549h4.282l.053 1.549h-.535l-.214-1.549.428.459h-3.746zm2.034 4.648l1.124.115v.402h-2.409v-.402l1.07-.115h.214zm-.642-2.467v-2.582h1.017v5.507999999999999h-1.017v-2.9259999999999997zM81.751 31.798v-.402h1.124v.516h-.107l-1.017-.115zm1.177 4.705v.516h-1.124v-.402l1.017-.115h.107zm-.482-2.467v-2.582h1.017v5.566h-1.07v-2.984h.054zm2.462-2.582l.428.459h-2.409v-.459h2.676l.053 1.492h-.535l-.214-1.492zm-.321 2.926h-1.659v-.459h1.713v.459h-.053zm1.231 1.148l-.053 1.492h-2.837v-.459h2.569l-.428.459.214-1.492h.535zm-1.445-1.492l.107-.861h.375v1.893h-.375l-.107-.861v-.172zM86.674 36.618l.749-.115h.161l.749.115v.402h-1.659v-.402zm0-5.164h2.248v.402l-1.017.115h-.268l-.963-.115v-.402zm2.141 2.582l.321.172-1.606 2.754h-.482l1.766-2.926zm-1.766-2.582h1.07l2.997 5.566h-1.07l-2.997-5.566zm3.372 0h.482l-1.659 2.869-.321-.229 1.499-2.639zm-1.284 5.164l1.017-.115h.268l1.017.115v.402h-2.301v-.402zm.428-5.164h1.659v.402l-.749.115h-.161l-.749-.115v-.402zM92.401 31.798v-.402h2.248v.402l-1.07.115h-.214l-.963-.115zm1.177 4.705l1.07.115v.402h-2.248v-.402l1.017-.115h.16zm-.535-2.467v-2.582h1.017v5.508h-1.017v-2.9259999999999997zm.482.344v-.459h3.051v.459h-3.051zm1.873-2.582v-.402h2.248v.402l-1.017.115h-.16l-1.071-.115zm1.231 4.705l1.017.115v.402h-2.248v-.402l1.017-.115h.214zm-.589-2.467v-2.582h1.017v5.507999999999999h-1.017v-2.926zM98.823 31.454h2.248v.402l-1.07.115h-.214l-1.017-.115v-.402h.053zm0 5.164l1.017-.115h.215l1.07.115v.402h-2.248v-.402h-.054zm.642-2.238v-2.9259999999999997h1.017v2.582l-.054 2.984h-.963v-2.639zm.375 1.893l3.105-4.475.214.402-3.104 4.475-.215-.402zm2.141-4.82h2.248v.402l-1.017.115h-.16l-1.017-.115v-.402h-.054zm0 5.164l1.017-.115h.161l1.017.115v.402h-2.248v-.402h.053zm.642-2.353l.054-2.869h.963v5.507999999999999h-1.017v-2.639zM105.246 31.454h2.194v.402l-1.07.115h-.161l-.963-.115v-.402zm.535 0h1.017v1.607c0 .975.268 1.262.964 1.262.374 0 .749-.057 1.284-.172v.344c-.482.172-1.017.287-1.606.287-1.016 0-1.659-.287-1.659-1.779v-1.549zm2.034 5.164l1.071-.115h.214l1.07.115v.402h-2.301v-.402h-.054zm.054-5.164h2.247v.402l-1.07.115h-.214l-1.017-.115v-.402h.054zm.642 2.984v-2.984h1.017v5.507999999999999h-1.017v-2.525zM111.293 31.798v-.402h1.124v.516h-.053l-1.071-.115zm1.124 4.705v.516h-1.124v-.402l1.017-.115h.107zm-.481-2.467v-2.582h1.017v5.566h-1.017v-2.984zm2.462-2.582l.428.459h-2.409v-.459h2.676l.054 1.492h-.535l-.214-1.492zm-.268 2.926h-1.713v-.459h1.713v.459zm1.178 1.148l-.054 1.492h-2.837v-.459h2.569l-.428.459.214-1.492h.536zm-1.392-1.492l.107-.861h.375v1.893h-.375l-.107-.861v-.172zM120.339 36.159v.459l-.482.115.214-1.262h.535l-.053 1.262c-.428.287-.964.402-1.552.402-1.499 0-2.569-1.09-2.569-2.926s1.177-2.926 2.622-2.926c.482 0 1.017.115 1.499.402l.053 1.262h-.535l-.214-1.262.482.115v.459c-.375-.402-.75-.574-1.124-.574-.91 0-1.659.803-1.659 2.467 0 1.664.695 2.467 1.659 2.467.321.057.749-.115 1.124-.459zM121.73 31.454h2.248v.402l-1.07.115h-.214l-1.017-.115v-.402h.053zm0 5.164l1.017-.115h.214l1.071.115v.402h-2.248v-.402h-.054zm.643-2.238v-2.9259999999999997h1.016v5.566h-1.016v-2.639zm2.087.688c-.107-.459-.375-.631-.856-.631h-.803v-.402h.695c.482 0 .696-.115 1.017-1.09.375-1.205.696-1.549 1.124-1.607.321 0 .535.23.535.574 0 .287-.214.574-.642.574-.267 0-.481-.057-.642-.115l.482-.287c-.214.344-.375.574-.536 1.148-.321.861-.588 1.148-1.177 1.205l-.053-.172c1.07.057 1.552.402 1.766 1.262l.374 1.32-.428-.229 1.071.115v.402c-.215.057-.482.115-.75.115-.535 0-.856-.115-.963-.688l-.214-1.492zM127.403 31.454h2.248v.402l-1.07.115h-.161l-1.017-.115v-.402zm0 5.164l1.017-.115h.214l1.071.115v.402h-2.248v-.402h-.054zm.643-2.238v-2.9259999999999997h1.016v2.582l-.053 2.984h-.963v-2.639zm.374 1.893l3.104-4.475.214.402-3.104 4.475-.214-.402zm2.087-4.82h2.248v.402l-1.017.115h-.16l-1.017-.115v-.402h-.054zm0 5.164l1.017-.115h.161l1.017.115v.402h-2.248v-.402h.053zm.643-2.353l.053-2.869h.964v5.507999999999999h-1.017v-2.639zM133.933 31.454h2.248v.402l-1.071.115h-.214l-1.017-.115v-.402h.054zm0 5.164l1.017-.115h.214l1.07.115v.402h-2.248v-.402h-.053zm.642-2.238v-2.9259999999999997h1.017v2.582l-.053 2.984h-.964v-2.639zm.375 1.893l3.104-4.475.214.402-3.104 4.475-.214-.402zm.321-6.484c.053-.172.16-.287.375-.287.214 0 .428.172.428.631 0 .23 0 .402-.054.631l-.214-.459c.161.229.589.344.856.344.268 0 .696-.115.857-.344l-.214.459c-.054-.23-.054-.344-.054-.631 0-.459.214-.631.428-.631.161 0 .268.115.375.287 0 .746-.589 1.205-1.338 1.205-.856 0-1.445-.459-1.445-1.205zm1.766 1.664h2.248v.402l-1.017.115h-.16l-1.017-.115v-.402h-.054zm0 5.164l1.017-.115h.161l1.016.115v.402h-2.247v-.402h.053zm.642-2.352l.054-2.869h.963v5.507999999999999h-1.017v-2.639zM55.259 39.601h2.248v.402l-1.07.115h-.214l-1.017-.115v-.402h.053zm0 5.221l1.017-.115h.214l1.07.115v.402h-2.248v-.402h-.053zm.642-2.238v-2.9259999999999997h1.017v5.508h-1.017v-2.582zm2.087.631c-.107-.459-.375-.631-.856-.631h-.803v-.402h.696c.482 0 .696-.115 1.017-1.09.375-1.205.696-1.549 1.124-1.606.321 0 .535.229.535.574 0 .287-.214.574-.642.574-.268 0-.482-.057-.642-.115l.482-.287c-.214.344-.375.574-.535 1.148-.321.861-.589 1.148-1.178 1.205l-.053-.172c1.07.057 1.552.402 1.766 1.262l.375 1.32-.428-.229 1.07.115v.402c-.214.057-.482.115-.749.115-.535 0-.856-.115-.963-.688l-.214-1.492zM65.641 42.413c0 1.893-1.124 2.926-2.355 2.926-1.231 0-2.355-.975-2.355-2.926 0-1.893 1.177-2.926 2.355-2.926 1.177 0 2.355.975 2.355 2.926zm-2.355 2.467c.91 0 1.284-1.148 1.284-2.467 0-1.32-.375-2.467-1.284-2.467-.91 0-1.284 1.148-1.284 2.467 0 1.32.375 2.467 1.284 2.467zM67.139 44.191c.268 0 .428.115.696.344l-.321.057c.214-.287.375-.631.482-1.148.268-1.09.375-2.18.428-3.844h.428c-.054 1.721-.161 2.869-.375 3.959-.268 1.205-.696 1.779-1.231 1.779-.375 0-.642-.23-.642-.746.053-.23.268-.402.535-.402zm.589-4.59h.91v.516h-.107l-.803-.115v-.402zm.91 0h1.713v.459h-1.713v-.459zm.589 5.221l1.07-.115h.161l1.017.115v.402h-2.301v-.402h.053zm.696-2.238v-2.9259999999999997h1.017v5.507999999999999h-1.017v-2.582zm.482-2.984h1.124v.402l-1.017.115h-.107v-.516zM72.973 44.191c.268 0 .428.115.696.344l-.321.057c.214-.287.375-.631.482-1.148.268-1.09.375-2.18.428-3.844h.428c-.054 1.721-.161 2.869-.375 3.959-.268 1.205-.696 1.779-1.231 1.779-.375 0-.642-.23-.642-.746.107-.23.268-.402.535-.402zm.642-4.59h.91v.516h-.107l-.803-.115v-.402zm.91 0h1.713v.459h-1.713v-.459zm.589 5.221l1.07-.115h.161l1.017.115v.402h-2.301v-.402h.053zm.642-2.238v-2.9259999999999997h1.017v5.507999999999999h-1.017v-2.582zm.482-2.984h1.124v.402l-1.017.115h-.107v-.516zM78.539 40.003v-.402h1.124v.516h-.107l-1.017-.115zm1.124 4.648v.516h-1.124v-.344l1.017-.115h.107v-.057zm-.482-2.41v-2.582h1.017v5.566h-1.017v-2.984zm2.462-2.639l.428.459h-2.408v-.459h2.676l.053 1.492h-.535l-.214-1.492zm-.268 2.926h-1.713v-.459h1.713v.459zm1.177 1.205l-.053 1.492h-2.837v-.459h2.569l-.428.459.214-1.492h.535zm-1.445-1.492l.107-.861h.375v1.893h-.375l-.107-.861v-.172zM83.356 44.708h5.084l-.053 2.008h-.482l-.214-1.951.375.459h-4.335l.428-.459-.268 1.951h-.482l-.053-2.008zm1.927-5.107h.482c-.107 2.697-.696 4.418-1.445 5.279l-.482-.172c.749-.918 1.338-2.525 1.445-5.107zm-.696 0h.91v.516h-.107l-.803-.115v-.402zm.91 0h1.713v.459h-1.713v-.459zm1.231 2.984v-2.9259999999999997h1.017v5.507999999999999h-1.07c.054-.861.054-1.721.054-2.582zm.482-2.984h1.124v.402l-1.017.115h-.107v-.516zM89.992 45.282c-.214 0-.535-.057-.749-.115v-.344l1.07-.115-.428.229.375-1.32c.214-.803.642-1.205 1.766-1.262l-.053.172c-.589-.057-.91-.344-1.177-1.205-.214-.574-.321-.803-.535-1.148l.535.344c-.161.057-.428.115-.642.115-.428 0-.642-.287-.642-.574s.214-.516.535-.574c.428.115.696.459 1.124 1.606.321.975.589 1.09 1.07 1.09h.589v.402h-.696c-.428 0-.696.172-.803.631l-.321 1.377c-.16.574-.482.689-1.017.689zm1.713-5.68h2.194v.402l-1.017.115h-.161l-1.017-.115v-.402zm0 5.221l1.017-.115h.161l1.017.115v.402h-2.194v-.402zm.642-2.295v-2.927h.963v5.566h-.963v-2.639zm1.98.688c-.107-.459-.375-.631-.803-.631h-.696v-.402h.589c.482 0 .749-.172 1.07-1.09.375-1.205.696-1.549 1.124-1.606.321 0 .535.229.535.574 0 .287-.214.574-.642.574-.214 0-.482-.057-.642-.115l.535-.344c-.214.344-.375.574-.535 1.148-.321.861-.589 1.148-1.177 1.205l-.054-.172c1.124.057 1.552.459 1.766 1.262l.375 1.32-.428-.229 1.07.115v.402c-.214.057-.482.115-.749.115-.535 0-.856-.115-.963-.688l-.375-1.434z" fill="#004753"/></g><defs><clipPath id="a"><path fill="#fff" d="M0 0h157v54.232h-157z"/></clipPath></defs></svg>